<svg id="Layer_1" data-name="Layer 1" xmlns="http://www.w3.org/2000/svg" width="241.66" height="208.58" viewBox="0 0 241.66 208.58"><defs><style>.cls-1,.cls-2{fill:#d6a313;}.cls-2{stroke:#fff;stroke-miterlimit:10;stroke-width:2.82px;}.cls-3{fill:#fff;}</style></defs><rect class="cls-1" x="18.04" y="1.91" width="205.68" height="204.77" rx="24.64" transform="translate(225.17 -16.59) rotate(90)"/><rect class="cls-2" x="28.2" y="11.61" width="185.35" height="185.37" rx="14.71"/><rect class="cls-1" x="87.82" y="-11.7" width="66.01" height="237.83" rx="10.93" transform="translate(228.04 -13.62) rotate(90)"/><rect class="cls-3" x="9.96" y="81.77" width="222.84" height="50.7" rx="6.94"/><g id="Group_6414" data-name="Group 6414"><path id="Path_31743" data-name="Path 31743" class="cls-3" d="M113.74,43.1H104a1.61,1.61,0,0,1-1.31-1.16,2.16,2.16,0,0,1,.87-2.09l.7-.62c.29-.26.58-.54.88-.78l4.31-3.69.65-.53c.43-.34.85-.7,1.25-1.08a3.53,3.53,0,0,0,1-2.57,2.3,2.3,0,0,0-.8-1.67,3.53,3.53,0,0,0-2.63-.8A5.25,5.25,0,0,0,105.53,30a1.3,1.3,0,0,1-2-1.65h0a7.91,7.91,0,0,1,5.23-2.82,6.08,6.08,0,0,1,4.55,1.4A4.81,4.81,0,0,1,115,30.47,6.08,6.08,0,0,1,113.26,35c-.47.45-1,.87-1.46,1.27l-.6.49-4.31,3.67-.1.1h6.95a1.3,1.3,0,0,1,.12,2.6h-.12Z"/><path id="Path_31744" data-name="Path 31744" class="cls-3" d="M138.39,25.48a1.31,1.31,0,1,1-1.31,1.31,1.31,1.31,0,0,1,1.31-1.31h0"/><path id="Path_31745" data-name="Path 31745" class="cls-3" d="M123.6,25.46a1.31,1.31,0,0,1,.34,2.59,6.46,6.46,0,0,0,0,12.47,1.3,1.3,0,0,1-.35,2.58h0a1.81,1.81,0,0,1-.31-.09,9.07,9.07,0,0,1,0-17.49,1.34,1.34,0,0,1,.35-.05"/><path id="Path_31746" data-name="Path 31746" class="cls-3" d="M127.76,25.46a1.06,1.06,0,0,1,.35.05,9.07,9.07,0,0,1,0,17.49,1.3,1.3,0,0,1-.7-2.5,6.47,6.47,0,0,0,0-12.48,1.3,1.3,0,0,1,.34-2.56Z"/><path id="Path_31747" data-name="Path 31747" class="cls-3" d="M138.4,43.09a1.3,1.3,0,0,1-1.3-1.29V32.22a1.3,1.3,0,0,1,2.6,0v9.57a1.29,1.29,0,0,1-1.28,1.3h0Zm6.69-16.64a1.57,1.57,0,0,1-3.14,0,1.55,1.55,0,0,1,1.53-1.57h.05a1.53,1.53,0,0,1,1.56,1.49v.07m-.26,0a1.28,1.28,0,0,0-1.23-1.32h-.07a1.3,1.3,0,0,0-1.32,1.28,0,0,0,0,0,0,.05,1.31,1.31,0,1,0,2.62.12v-.13Zm-.85.28.39.6H144l-.35-.54h-.39v.54h-.38V25.58h.72c.47,0,.74.24.74.61a.55.55,0,0,1-.35.54m-.41-.23c.25,0,.39-.12.39-.31s-.14-.31-.39-.31h-.33v.62Z"/></g><path class="cls-3" d="M52.44,55.41V60h6.67v1.64H52.44v5.37h-1.9V53.76h9.39v1.65Z"/><path class="cls-3" d="M61.37,60.4a7.07,7.07,0,1,1,7.09,6.81A6.76,6.76,0,0,1,61.37,60.4Zm12.23,0a5.17,5.17,0,1,0-5.14,5.12A5,5,0,0,0,73.6,60.4Z"/><path class="cls-3" d="M77.2,65.53l.7-1.48a6.87,6.87,0,0,0,4.39,1.54c2.3,0,3.28-.89,3.28-2.05,0-3.25-8-1.2-8-6.14,0-2,1.6-3.8,5.09-3.8a7.86,7.86,0,0,1,4.28,1.18l-.63,1.52a6.88,6.88,0,0,0-3.65-1.08c-2.26,0-3.23,1-3.23,2.11,0,3.25,8.06,1.21,8.06,6.1,0,2-1.64,3.78-5.15,3.78A7.88,7.88,0,0,1,77.2,65.53Z"/><path class="cls-3" d="M89,65.53l.7-1.48a6.87,6.87,0,0,0,4.39,1.54c2.3,0,3.28-.89,3.28-2.05,0-3.25-8.05-1.2-8.05-6.14,0-2,1.59-3.8,5.09-3.8a7.8,7.8,0,0,1,4.27,1.18l-.62,1.52a6.88,6.88,0,0,0-3.65-1.08c-2.26,0-3.23,1-3.23,2.11,0,3.25,8.06,1.21,8.06,6.1,0,2-1.64,3.78-5.15,3.78A7.86,7.86,0,0,1,89,65.53Z"/><path class="cls-3" d="M115.59,63.73h-7.06l-1.47,3.32h-2l6-13.29H113l6,13.29h-2Zm-.66-1.52-2.87-6.52-2.87,6.52Z"/><path class="cls-3" d="M139.12,53.76l-4.45,13.29h-2l-3.63-10.62-3.63,10.62h-2l-4.45-13.29h2l3.59,10.8,3.74-10.8H130l3.67,10.86,3.66-10.86Z"/><path class="cls-3" d="M149.49,63.73h-7.07L141,67.05h-2l6-13.29h1.88l6,13.29h-2Zm-.66-1.52L146,55.69l-2.87,6.52Z"/><path class="cls-3" d="M163.82,67.05,161,63c-.27,0-.55,0-.84,0h-3.28v4h-1.9V53.76h5.18c3.46,0,5.55,1.74,5.55,4.63a4.2,4.2,0,0,1-2.92,4.2l3.15,4.46Zm-.06-8.66c0-1.9-1.27-3-3.7-3h-3.23v6h3.23C162.49,61.39,163.76,60.29,163.76,58.39Z"/><path class="cls-3" d="M168.74,53.76h5.6c4.28,0,7.19,2.69,7.19,6.64s-2.91,6.65-7.19,6.65h-5.6Zm5.49,11.64c3.29,0,5.39-2,5.39-5s-2.1-5-5.39-5h-3.59v10Z"/><path class="cls-3" d="M183.22,65.53l.7-1.48a6.87,6.87,0,0,0,4.39,1.54c2.3,0,3.28-.89,3.28-2.05,0-3.25-8.05-1.2-8.05-6.14,0-2,1.6-3.8,5.09-3.8a7.86,7.86,0,0,1,4.28,1.18l-.63,1.52a6.88,6.88,0,0,0-3.65-1.08c-2.26,0-3.23,1-3.23,2.11,0,3.25,8.06,1.21,8.06,6.1,0,2-1.64,3.78-5.15,3.78A7.88,7.88,0,0,1,183.22,65.53Z"/><path class="cls-1" d="M31.48,105.24c0,2.65-2,4.3-5.17,4.3h-2.4v3.28H21.16v-11.9h5.15C29.49,100.92,31.48,102.57,31.48,105.24Zm-2.79,0c0-1.31-.85-2.08-2.53-2.08H23.91v4.13h2.25C27.84,107.29,28.69,106.53,28.69,105.24Z"/><path class="cls-1" d="M40.68,110.27H35.15l-1,2.55H31.28l5.3-11.9H39.3l5.32,11.9H41.73Zm-.87-2.09-1.89-4.56L36,108.18Z"/><path class="cls-1" d="M44.93,111.65l.93-2.08a7,7,0,0,0,3.93,1.24c1.63,0,2.29-.54,2.29-1.27,0-2.23-6.92-.7-6.92-5.12,0-2,1.64-3.7,5-3.7a8,8,0,0,1,4.13,1l-.85,2.09a6.71,6.71,0,0,0-3.3-.93c-1.63,0-2.26.61-2.26,1.36,0,2.19,6.92.68,6.92,5,0,2-1.65,3.69-5,3.69A8.49,8.49,0,0,1,44.93,111.65Z"/><path class="cls-1" d="M55.77,111.65l.94-2.08a7,7,0,0,0,3.92,1.24c1.64,0,2.3-.54,2.3-1.27,0-2.23-6.92-.7-6.92-5.12,0-2,1.63-3.7,5-3.7a8,8,0,0,1,4.14,1l-.86,2.09a6.67,6.67,0,0,0-3.29-.93c-1.63,0-2.26.61-2.26,1.36,0,2.19,6.91.68,6.91,5,0,2-1.64,3.69-5,3.69A8.55,8.55,0,0,1,55.77,111.65Z"/><path class="cls-1" d="M85.54,100.92l-3.9,11.9h-3l-2.62-8.06-2.7,8.06h-3l-3.9-11.9h2.85l2.69,8.36,2.8-8.36h2.55l2.72,8.43,2.77-8.43Z"/><path class="cls-1" d="M86.18,106.87a6.16,6.16,0,0,1,6.51-6.15c3.74,0,6.51,2.6,6.51,6.15S96.43,113,92.69,113A6.16,6.16,0,0,1,86.18,106.87Zm10.24,0a3.73,3.73,0,1,0-3.73,3.81A3.64,3.64,0,0,0,96.42,106.87Z"/><path class="cls-1" d="M108.86,112.82l-2.29-3.32H104v3.32h-2.75v-11.9h5.15c3.18,0,5.17,1.65,5.17,4.32a3.86,3.86,0,0,1-2.45,3.75l2.67,3.83Zm-2.58-9.66H104v4.15h2.25c1.68,0,2.53-.78,2.53-2.07S108,103.16,106.28,103.16Z"/><path class="cls-1" d="M113.77,100.92h5.41c3.89,0,6.56,2.35,6.56,6s-2.67,5.95-6.56,5.95h-5.41Zm5.27,9.64c2.37,0,3.91-1.41,3.91-3.69s-1.54-3.69-3.91-3.69h-2.51v7.38Z"/><path class="cls-1" d="M143.45,112.82v-7.14l-3.5,5.88H138.7l-3.49-5.73v7h-2.58v-11.9h2.27l4.46,7.39,4.38-7.39H146l0,11.9Z"/><path class="cls-1" d="M156.7,110.27h-5.53l-1,2.55H147.3l5.3-11.9h2.72l5.32,11.9h-2.89Zm-.87-2.09-1.89-4.56-1.88,4.56Z"/><path class="cls-1" d="M172.8,100.92v11.9h-2.27l-5.93-7.23v7.23h-2.72v-11.9h2.28l5.92,7.22v-7.22Z"/><path class="cls-1" d="M183.45,110.27h-5.52l-1.05,2.55h-2.83l5.31-11.9h2.72l5.32,11.9h-2.89Zm-.86-2.09-1.89-4.56-1.89,4.56Z"/><path class="cls-1" d="M196.51,106.68H199v4.83a8.18,8.18,0,0,1-4.81,1.51c-3.74,0-6.5-2.56-6.5-6.15s2.76-6.15,6.55-6.15a6.35,6.35,0,0,1,5,2l-1.77,1.63a4.06,4.06,0,0,0-3.08-1.34,3.81,3.81,0,1,0,0,7.62,4.41,4.41,0,0,0,2.14-.51Z"/><path class="cls-1" d="M210.79,110.61v2.21h-9.21v-11.9h9v2.21h-6.26v2.58h5.53v2.14h-5.53v2.76Z"/><path class="cls-1" d="M220.57,112.82l-2.3-3.32h-2.53v3.32H213v-11.9h5.15c3.17,0,5.16,1.65,5.16,4.32a3.86,3.86,0,0,1-2.44,3.75l2.66,3.83ZM218,103.16h-2.24v4.15H218c1.68,0,2.54-.78,2.54-2.07S219.66,103.16,218,103.16Z"/><path class="cls-3" d="M89.26,152.91l-6.65,20.31h-5L73.1,159.47l-4.61,13.75h-5L56.8,152.91h4.87l4.58,14.27L71,152.91h4.35L80,167.3l4.73-14.39Z"/><path class="cls-3" d="M91.86,152.91h4.7v20.31h-4.7Z"/><path class="cls-3" d="M120,152.91v20.31h-3.86L106,160.89v12.33h-4.64V152.91h3.89l10.09,12.33V152.91Z"/><path class="cls-3" d="M143.42,152.91v20.31h-3.85l-10.13-12.33v12.33H124.8V152.91h3.89l10.09,12.33V152.91Z"/><path class="cls-3" d="M164,169.45v3.77H148.23V152.91h15.35v3.77H152.9v4.41h9.43v3.66H152.9v4.7Z"/><path class="cls-3" d="M180.63,173.22l-3.92-5.66h-4.32v5.66h-4.7V152.91h8.79c5.43,0,8.82,2.82,8.82,7.37a6.61,6.61,0,0,1-4.18,6.41l4.56,6.53Zm-4.41-16.48h-3.83v7.08h3.83c2.87,0,4.32-1.34,4.32-3.54S179.09,156.74,176.22,156.74Z"/></svg>