<?xml version="1.0" encoding="UTF-8"?>
<svg width="998px" height="219px" viewBox="0 0 998 219" version="1.1" xmlns="http://www.w3.org/2000/svg" xmlns:xlink="http://www.w3.org/1999/xlink">
    <!-- Generator: Sketch 52.1 (67048) - http://www.bohemiancoding.com/sketch -->
    <title>Group</title>
    <desc>Created with Sketch.</desc>
    <g id="Page-1" stroke="none" stroke-width="1" fill="none" fill-rule="evenodd">
        <g id="Artboard-Copy" transform="translate(-381.000000, -67.000000)" fill="#67D5B5">
            <g id="Group" transform="translate(381.000000, 67.000000)">
                <path d="M0.531578529,0.495071442 L63.8927987,0.495071442 C70.0146863,0.495071442 76.0599597,1.23265842 82.0288001,2.7078545 C87.9976406,4.18305059 93.3159507,6.58991336 97.98389,9.92851502 C102.651829,13.2671167 106.43969,17.5761774 109.347587,22.8558266 C112.255484,28.1354757 113.70941,34.502016 113.70941,41.9556383 C113.70941,51.2726662 111.107647,58.9590989 105.904042,65.015167 C100.700438,71.0712352 93.8899402,75.4191163 85.4723447,78.0589409 L85.4723447,78.5247899 C90.522902,79.1459251 95.2290325,80.5822787 99.5908774,82.8338938 C103.952722,85.0855089 107.664061,87.958216 110.725005,91.4521015 C113.785949,94.945987 116.196406,98.9833052 117.956449,103.564177 C119.716491,108.145049 120.596499,113.075236 120.596499,118.354885 C120.596499,127.361345 118.836483,134.853676 115.316398,140.832102 C111.796312,146.810529 107.166704,151.624254 101.427435,155.273423 C95.6881649,158.922593 89.1072344,161.523557 81.6844457,163.076395 C74.2616569,164.629233 66.7241958,165.405641 59.0718363,165.405641 L0.531578529,165.405641 L0.531578529,0.495071442 Z M29.457353,67.5773369 L55.8578614,67.5773369 C65.4998344,67.5773369 72.7312057,65.6751389 77.5521922,61.8706858 C82.3731787,58.0662328 84.7836358,53.0584054 84.7836358,46.8470535 C84.7836358,39.7039987 82.2966562,34.3856084 77.3226225,30.891723 C72.3485888,27.3978375 64.3519931,25.650921 53.3325953,25.650921 L29.457353,25.650921 L29.457353,67.5773369 Z M29.457353,140.249791 L56.087431,140.249791 C59.7605636,140.249791 63.7014696,140.016869 67.9102674,139.551018 C72.1190651,139.085166 75.9834487,137.998196 79.5035341,136.290074 C83.0236195,134.581952 85.9314725,132.136269 88.2271803,128.952951 C90.5228882,125.769633 91.6707249,121.460573 91.6707249,116.02564 C91.6707249,107.329747 88.8776556,101.27377 83.2914331,97.8575262 C77.7052107,94.4412826 69.0199129,92.7331864 57.2352792,92.7331864 L29.457353,92.7331864 L29.457353,140.249791 Z M242.592506,165.405641 L216.421567,165.405641 L216.421567,147.470452 L215.962428,147.470452 C213.360626,153.060668 209.381459,157.913214 204.024807,162.028235 C198.668155,166.143256 191.398523,168.200735 182.215691,168.200735 C174.869426,168.200735 168.632847,166.997304 163.505766,164.590405 C158.378685,162.183506 154.208211,158.922595 150.99422,154.807574 C147.780229,150.692554 145.484556,145.995289 144.107131,140.71564 C142.729707,135.435991 142.041005,129.923499 142.041005,124.177998 L142.041005,53.6018649 L169.589361,53.6018649 L169.589361,110.202526 C169.589361,113.308202 169.742406,116.763215 170.0485,120.567668 C170.354595,124.372121 171.158081,127.943595 172.458982,131.282197 C173.759883,134.620798 175.749466,137.415865 178.427792,139.66748 C181.106118,141.919095 184.893979,143.044886 189.791489,143.044886 C194.382905,143.044886 198.247289,142.268478 201.384756,140.71564 C204.522223,139.162802 207.123987,137.066502 209.190124,134.426678 C211.256261,131.786853 212.748449,128.758865 213.666732,125.342621 C214.585015,121.926377 215.04415,118.354904 215.04415,114.628093 L215.04415,53.6018649 L242.592506,53.6018649 L242.592506,165.405641 Z M256.231644,77.3601673 L256.231644,53.6018649 L278.959038,53.6018649 L278.959038,21.2253549 L306.507394,21.2253549 L306.507394,53.6018649 L336.810587,53.6018649 L336.810587,77.3601673 L306.507394,77.3601673 L306.507394,126.274319 C306.507394,131.864536 307.540448,136.290058 309.606585,139.551018 C311.672722,142.811977 315.766673,144.442433 321.88856,144.442433 C324.337315,144.442433 327.015601,144.17069 329.923498,143.627197 C332.831394,143.083704 335.127068,142.190835 336.810587,140.948565 L336.810587,164.473943 C333.90269,165.871497 330.344396,166.842006 326.135599,167.385499 C321.926801,167.928992 318.215462,168.200735 315.001471,168.200735 C307.655206,168.200735 301.648194,167.385507 296.980254,165.755027 C292.312315,164.124548 288.639238,161.640044 285.960912,158.301442 C283.282586,154.962841 281.446047,150.809061 280.451241,145.83998 C279.456434,140.870898 278.959038,135.125484 278.959038,128.603564 L278.959038,77.3601673 L256.231644,77.3601673 Z M341.037369,77.3601673 L341.037369,53.6018649 L363.764763,53.6018649 L363.764763,21.2253549 L391.31312,21.2253549 L391.31312,53.6018649 L421.616312,53.6018649 L421.616312,77.3601673 L391.31312,77.3601673 L391.31312,126.274319 C391.31312,131.864536 392.346173,136.290058 394.41231,139.551018 C396.478447,142.811977 400.572398,144.442433 406.694286,144.442433 C409.143041,144.442433 411.821326,144.17069 414.729223,143.627197 C417.63712,143.083704 419.932793,142.190835 421.616312,140.948565 L421.616312,164.473943 C418.708416,165.871497 415.150122,166.842006 410.941324,167.385499 C406.732526,167.928992 403.021188,168.200735 399.807197,168.200735 C392.460931,168.200735 386.453919,167.385507 381.78598,165.755027 C377.118041,164.124548 373.444963,161.640044 370.766637,158.301442 C368.088311,154.962841 366.251773,150.809061 365.256966,145.83998 C364.262159,140.870898 363.764763,135.125484 363.764763,128.603564 L363.764763,77.3601673 L341.037369,77.3601673 Z M460.50811,119.286583 C461.426393,127.671908 464.640336,134.19373 470.150035,138.852244 C475.659734,143.510758 482.317187,145.83998 490.122593,145.83998 C497.009717,145.83998 502.787162,144.403626 507.455101,141.530876 C512.12304,138.658126 516.216991,135.047832 519.737077,130.699885 L539.480065,145.83998 C533.052083,153.914737 525.858973,159.660152 517.900519,163.076395 C509.942066,166.492639 501.601119,168.200735 492.877429,168.200735 C484.612881,168.200735 476.807591,166.803202 469.461326,164.008093 C462.115061,161.212985 455.763697,157.253308 450.407046,152.128942 C445.050394,147.004577 440.803398,140.832139 437.665931,133.611442 C434.528463,126.390745 432.959753,118.354929 432.959753,109.503753 C432.959753,100.652576 434.528463,92.6167603 437.665931,85.3960636 C440.803398,78.175367 445.050394,72.0029286 450.407046,66.8785633 C455.763697,61.7541979 462.115061,57.7945205 469.461326,54.9994121 C476.807591,52.2043037 484.612881,50.8067705 492.877429,50.8067705 C500.529788,50.8067705 507.531592,52.1654834 513.883051,54.8829499 C520.234509,57.6004163 525.667603,61.5212734 530.182495,66.6456388 C534.697387,71.7700041 538.21742,78.097724 540.742698,85.6289882 C543.267977,93.1602524 544.530598,101.817194 544.530598,111.600074 L544.530598,119.286583 L460.50811,119.286583 Z M516.982241,98.3233752 C516.829194,90.0933339 514.303953,83.6103326 509.406443,78.8741767 C504.508933,74.1380209 497.698435,71.7699785 488.974745,71.7699785 C480.710197,71.7699785 474.167527,74.1768413 469.346541,78.990639 C464.525554,83.8044367 461.57944,90.2486177 460.50811,98.3233752 L516.982241,98.3233752 Z M565.515963,53.6018649 L593.06432,53.6018649 L593.06432,71.3041294 L593.523459,71.3041294 C596.584403,64.7822099 600.946183,59.7355621 606.608929,56.1640348 C612.271675,52.5925074 618.776083,50.8067705 626.122348,50.8067705 C627.805867,50.8067705 629.4511,50.962052 631.058095,51.2726196 C632.665091,51.5831872 634.310323,51.9713909 635.993842,52.4372423 L635.993842,79.4564881 C633.698135,78.8353529 631.440722,78.3306881 629.221538,77.9424786 C627.002354,77.5542691 624.821464,77.3601673 622.678803,77.3601673 C616.250821,77.3601673 611.085556,78.5635987 607.182853,80.9704975 C603.280149,83.3773964 600.295774,86.1336425 598.229637,89.2393184 C596.1635,92.3449944 594.786096,95.4506238 594.097383,98.5562998 C593.408671,101.661976 593.06432,103.991198 593.06432,105.544036 L593.06432,165.405641 L565.515963,165.405641 L565.515963,53.6018649 Z M721.258707,87.1429976 C718.044716,83.7267541 714.677728,81.0093284 711.157643,78.990639 C707.637558,76.9719496 704.041003,75.9626201 700.36787,75.9626201 C695.317313,75.9626201 690.802488,76.8943089 686.823261,78.7577145 C682.844034,80.62112 679.438786,83.1056235 676.607412,86.2112995 C673.776039,89.3169755 671.633411,92.8884493 670.179463,96.925828 C668.725514,100.963207 667.998551,105.155806 667.998551,109.503753 C667.998551,113.851699 668.725514,118.044299 670.179463,122.081678 C671.633411,126.119056 673.776039,129.69053 676.607412,132.796206 C679.438786,135.901882 682.844034,138.386386 686.823261,140.249791 C690.802488,142.113197 695.317313,143.044886 700.36787,143.044886 C704.653191,143.044886 708.632359,142.152017 712.305491,140.366253 C715.978624,138.58049 719.116044,135.979525 721.717846,132.563282 L740.083417,152.594791 C737.328568,155.3899 734.152886,157.796763 730.556277,159.815452 C726.959668,161.834141 723.324852,163.464597 719.65172,164.706867 C715.978587,165.949137 712.458554,166.842006 709.091516,167.385499 C705.724478,167.928992 702.816625,168.200735 700.36787,168.200735 C692.103322,168.200735 684.298032,166.803202 676.951767,164.008093 C669.605502,161.212985 663.254139,157.253308 657.897487,152.128942 C652.540835,147.004577 648.293839,140.832139 645.156372,133.611442 C642.018905,126.390745 640.450194,118.354929 640.450194,109.503753 C640.450194,100.652576 642.018905,92.6167603 645.156372,85.3960636 C648.293839,78.175367 652.540835,72.0029286 657.897487,66.8785633 C663.254139,61.7541979 669.605502,57.7945205 676.951767,54.9994121 C684.298032,52.2043037 692.103322,50.8067705 700.36787,50.8067705 C707.408041,50.8067705 714.486367,52.1654834 721.603062,54.8829499 C728.719756,57.6004163 734.956335,61.9094771 740.312987,67.8102614 L721.258707,87.1429976 Z M852.437499,165.405641 L826.266561,165.405641 L826.266561,147.470452 L825.807421,147.470452 C823.205619,153.060668 819.226452,157.913214 813.8698,162.028235 C808.513149,166.143256 801.243516,168.200735 792.060685,168.200735 C784.714419,168.200735 778.47784,166.997304 773.350759,164.590405 C768.223678,162.183506 764.053205,158.922595 760.839214,154.807574 C757.625223,150.692554 755.329549,145.995289 753.952125,140.71564 C752.5747,135.435991 751.885998,129.923499 751.885998,124.177998 L751.885998,53.6018649 L779.434354,53.6018649 L779.434354,110.202526 C779.434354,113.308202 779.587399,116.763215 779.893494,120.567668 C780.199588,124.372121 781.003074,127.943595 782.303975,131.282197 C783.604876,134.620798 785.59446,137.415865 788.272786,139.66748 C790.951111,141.919095 794.738973,143.044886 799.636483,143.044886 C804.227898,143.044886 808.092282,142.268478 811.229749,140.71564 C814.367217,139.162802 816.96898,137.066502 819.035117,134.426678 C821.101254,131.786853 822.593442,128.758865 823.511725,125.342621 C824.430008,121.926377 824.889143,118.354904 824.889143,114.628093 L824.889143,53.6018649 L852.437499,53.6018649 L852.437499,165.405641 Z M878.932537,53.6018649 L905.103476,53.6018649 L905.103476,70.3724313 L905.562615,70.3724313 C909.541842,63.5399442 914.898413,58.5709371 921.632489,55.4652612 C928.366566,52.3595852 935.636198,50.8067705 943.441605,50.8067705 C951.859201,50.8067705 959.434923,52.3207649 966.168999,55.3487989 C972.903076,58.376833 978.642259,62.5306123 983.386722,67.8102614 C988.131185,73.0899106 991.72774,79.3011693 994.176495,86.444224 C996.62525,93.5872788 997.849609,101.273711 997.849609,109.503753 C997.849609,117.733794 996.548728,125.420227 993.946926,132.563282 C991.345123,139.706336 987.710307,145.917595 983.042368,151.197244 C978.374428,156.476893 972.750028,160.630673 966.168999,163.658707 C959.58797,166.686741 952.39486,168.200735 944.589453,168.200735 C939.385849,168.200735 934.794502,167.65725 930.815275,166.570263 C926.836048,165.483277 923.316015,164.085744 920.255072,162.377622 C917.194128,160.6695 914.592365,158.844943 912.449704,156.903895 C910.307043,154.962848 908.547027,153.06065 907.169602,151.197244 L906.480893,151.197244 L906.480893,218.512434 L878.932537,218.512434 L878.932537,53.6018649 Z M970.301253,109.503753 C970.301253,105.155806 969.57429,100.963207 968.120341,96.925828 C966.666393,92.8884493 964.523764,89.3169755 961.692391,86.2112995 C958.861018,83.1056235 955.455769,80.62112 951.476542,78.7577145 C947.497315,76.8943089 942.982491,75.9626201 937.931934,75.9626201 C932.881376,75.9626201 928.366552,76.8943089 924.387325,78.7577145 C920.408098,80.62112 917.002849,83.1056235 914.171476,86.2112995 C911.340103,89.3169755 909.197475,92.8884493 907.743526,96.925828 C906.289578,100.963207 905.562615,105.155806 905.562615,109.503753 C905.562615,113.851699 906.289578,118.044299 907.743526,122.081678 C909.197475,126.119056 911.340103,129.69053 914.171476,132.796206 C917.002849,135.901882 920.408098,138.386386 924.387325,140.249791 C928.366552,142.113197 932.881376,143.044886 937.931934,143.044886 C942.982491,143.044886 947.497315,142.113197 951.476542,140.249791 C955.455769,138.386386 958.861018,135.901882 961.692391,132.796206 C964.523764,129.69053 966.666393,126.119056 968.120341,122.081678 C969.57429,118.044299 970.301253,113.851699 970.301253,109.503753 Z" id="Buttercup"></path>
            </g>
        </g>
    </g>
</svg>