<?xml version="1.0" encoding="UTF-8"?><svg version="1.1" viewBox="0 0 100 112" xmlns="http://www.w3.org/2000/svg" xmlns:xlink="http://www.w3.org/1999/xlink"><!--Generated by IJSVG (https://github.com/iconjar/IJSVG)--><defs><path d="M32.73,75l7.89903e-08,-1.62454e-05c0.00552735,-1.13769 -0.912274,-2.06446 -2.04997,-2.06998c-0.00668289,-3.2468e-05 -0.0133659,-3.24153e-05 -0.0200488,1.5812e-07h-6.9l-9.04826e-08,1.42109e-14c-1.14323,4.99721e-08 -2.07,0.926771 -2.07,2.07c4.99721e-08,1.14323 0.926771,2.07 2.07,2.07h6.9l2.72011e-08,2.13163e-13c1.14323,8.9084e-06 2.07001,-0.926754 2.07002,-2.06998c4.21707e-11,-5.41219e-06 6.31175e-11,-1.08243e-05 6.28404e-11,-1.62365e-05Z" id="e"></path><path d="M34.11,70.82l5.24859e-08,-1.01976e-05c0.00585276,-1.13769 -0.911684,-2.06472 -2.04938,-2.07057c-0.0202134,-0.000103986 -0.0404272,8.95477e-05 -0.0606349,0.000580538h-6.9l-9.04826e-08,1.42109e-14c-1.14323,4.99721e-08 -2.07,0.926771 -2.07,2.07c4.99721e-08,1.14323 0.926771,2.07 2.07,2.07h6.90001l-1.04895e-07,-2.02733e-09c1.14302,0.0220915 2.08752,-0.886597 2.10961,-2.02961c0.000260159,-0.0134607 0.000388991,-0.0269236 0.000386476,-0.0403868Z" id="d"></path><path d="M43.77,79.1l3.31503e-08,-1.70584e-06c0.0221049,-1.13749 -0.882095,-2.07753 -2.01959,-2.09964c-0.0168029,-0.000326532 -0.0336092,-0.000447426 -0.0504151,-0.000362657h-6.9h-9.04826e-08c-1.14323,4.99721e-08 -2.07,0.926771 -2.07,2.07c4.99722e-08,1.14323 0.926771,2.07 2.07,2.07h6.9l6.98241e-08,7.31859e-12c1.13162,0.000118761 2.0536,-0.908504 2.07,-2.04Z" id="g"></path><path d="M43.77,75l7.89903e-08,-1.62454e-05c0.00552735,-1.13769 -0.912274,-2.06446 -2.04997,-2.06998c-0.00668289,-3.2468e-05 -0.0133659,-3.24153e-05 -0.0200488,1.5812e-07h-6.89998l-9.04826e-08,1.42109e-14c-1.14323,4.99721e-08 -2.07,0.926771 -2.07,2.07c4.99722e-08,1.14323 0.926771,2.07 2.07,2.07h6.9h6.57981e-08c1.14323,-8.63114e-08 2.07,-0.926771 2.07,-2.07Z" id="h"></path><path d="M32.73,79.1l3.31503e-08,-1.70584e-06c0.0221049,-1.13749 -0.882095,-2.07753 -2.01959,-2.09964c-0.0168029,-0.000326532 -0.0336092,-0.000447426 -0.0504151,-0.000362657h-6.9h-9.04826e-08c-1.14323,4.99721e-08 -2.07,0.926771 -2.07,2.07c4.99721e-08,1.14323 0.926771,2.07 2.07,2.07h6.9l4.86155e-08,5.14433e-12c1.13162,0.000119705 2.0536,-0.908503 2.07,-2.04Z" id="f"></path><path d="M59.3,42l-4.00917e-07,2.14797e-10c-1.73133,0.000927597 -3.45654,0.20567 -5.13999,0.609999l1.7326e-07,2.93179e-07c-1.40038,-2.36964 -4.08152,-3.6728 -6.81,-3.31l4.66106e-09,-6.7957e-10c-0.50484,0.0736047 -0.927884,0.419732 -1.1,0.9l1.93204e-08,-5.10483e-08c-0.179967,0.475508 -0.0796738,1.01169 0.26,1.39l3.48839e-08,3.88663e-08c0.892352,0.994226 1.47305,2.22864 1.67,3.55l6.02781e-07,-3.67965e-07c-2.68885,1.64139 -4.78915,4.09175 -6,7l-2.8019e-08,7.13214e-08c-0.542726,1.38149 -1.87573,2.28999 -3.36,2.29l-7.99834e-08,4.04796e-11c-0.762153,0.000385716 -1.37969,0.618545 -1.3793,1.3807c3.88867e-05,0.076838 0.00649517,0.153539 0.0193015,0.229302l0.92,5.52l-5.32143e-08,-3.1482e-07c0.112189,0.66372 0.686865,1.14966 1.36,1.15h3.34l-2.09476e-07,-3.46024e-07c1.28007,2.11449 3.04547,3.89361 5.15,5.19v4.47l-6.25297e-08,8.62194e-06c-0.0110522,1.52427 1.21565,2.76889 2.73992,2.77994c0.0100292,7.27202e-05 0.0200588,9.07724e-05 0.0300882,5.41559e-05h2.76l8.32422e-08,-2.99977e-10c1.52203,-0.00548489 2.75452,-1.23797 2.76,-2.76v-1.56l-1.62367e-06,-2.08781e-07c0.921842,0.118536 1.85058,0.175329 2.77999,0.17l-7.81909e-07,6.06579e-09c0.923007,-0.00716037 1.84472,-0.0706115 2.76,-0.19v1.57l2.84217e-14,-4.16748e-07c-2.30164e-07,1.52431 1.23569,2.76 2.76,2.76c0,0 0,0 0,0h2.76l8.32422e-08,-2.99963e-10c1.52203,-0.00548489 2.75452,-1.23797 2.76,-2.76v-4.45c4.19,-2.66 6.9,-6.77 6.9,-11.41c2.82882e-06,-8 -8.03,-14.52 -17.94,-14.52Z" id="a"></path><path d="M56.9095,27.3205c1.34731,1.34731 1.34731,3.53173 0,4.87904c-1.34731,1.34731 -3.53173,1.34731 -4.87904,0c-1.34731,-1.34731 -1.34731,-3.53173 0,-4.87904c1.34731,-1.34731 3.53173,-1.34731 4.87904,-3.55271e-15" id="b"></path><path d="M38.25,66.68l7.89903e-08,-1.62454e-05c0.00552735,-1.13769 -0.912274,-2.06446 -2.04997,-2.06998c-0.00668289,-3.2468e-05 -0.0133659,-3.24153e-05 -0.0200488,1.5812e-07h-6.9l-9.04826e-08,1.42109e-14c-1.14323,4.99721e-08 -2.07,0.926771 -2.07,2.07c4.99721e-08,1.14323 0.926771,2.07 2.07,2.07h6.9l2.72011e-08,2.13163e-13c1.14323,8.9084e-06 2.07001,-0.926754 2.07002,-2.06998c4.21778e-11,-5.41219e-06 6.31246e-11,-1.08243e-05 6.28475e-11,-1.62365e-05Z" id="i"></path><path d="M66.5695,33.5305c1.34731,1.34731 1.34731,3.53173 0,4.87904c-1.34731,1.34731 -3.53173,1.34731 -4.87904,0c-1.34731,-1.34731 -1.34731,-3.53173 0,-4.87904c1.34731,-1.34731 3.53173,-1.34731 4.87904,0" id="c"></path><path d="M45.15,70.82l7.89903e-08,-1.62454e-05c0.00552735,-1.13769 -0.912274,-2.06446 -2.04997,-2.06998c-0.00668289,-3.2468e-05 -0.0133659,-3.24153e-05 -0.0200488,1.5812e-07h-6.9l-9.04826e-08,1.42109e-14c-1.14323,4.99721e-08 -2.07,0.926771 -2.07,2.07c4.99722e-08,1.14323 0.926771,2.07 2.07,2.07h6.9l2.72011e-08,2.13163e-13c1.14323,8.9084e-06 2.07001,-0.926754 2.07002,-2.06998c4.21778e-11,-5.41219e-06 6.31246e-11,-1.08243e-05 6.28475e-11,-1.62365e-05Z" id="j"></path></defs><path d="M90.5,56l1.75431e-07,0.00374627c-1.42109e-14,-22.0914 -17.9086,-40 -40,-40c-22.0914,7.10543e-15 -40,17.9086 -40,40c0,5.68809 1.21314,11.3108 3.55846,16.4928h72.8815l-2.56202e-07,5.6497e-07c2.3499,-5.18194 3.56374,-10.8067 3.56,-16.4966Z" fill="#E8F4FA"></path><path fill="#FFF" d="M14.06,72.5l-2.10036e-06,-4.63966e-06c9.11063,20.1253 32.811,29.0544 52.9363,19.9438c8.84893,-4.00588 15.9379,-11.0948 19.9437,-19.9437Z"></path><g stroke-linecap="round" stroke-width="1" stroke="#191816" fill="none" stroke-linejoin="round"><path d="M11,72.5h78"></path><path d="M6.5,72.5h2.5"></path><path d="M91,72.5h2.5"></path></g><use fill="#FFA694" xlink:href="#a"></use><path d="M77.24,56.52c0,-8 -8,-14.49 -17.94,-14.49l-4.00917e-07,2.14797e-10c-1.73133,0.000927597 -3.45654,0.20567 -5.13999,0.609999l1.7326e-07,2.93179e-07c-1.40038,-2.36964 -4.08152,-3.6728 -6.81,-3.31l4.66106e-09,-6.7957e-10c-0.50484,0.0736047 -0.927884,0.419732 -1.1,0.9l1.93204e-08,-5.10483e-08c-0.179967,0.475508 -0.0796738,1.01169 0.26,1.39l3.48839e-08,3.88663e-08c0.892352,0.994226 1.47305,2.22864 1.67,3.55l6.02781e-07,-3.67965e-07c-2.68885,1.64139 -4.78915,4.09175 -6,7l-2.8019e-08,7.13214e-08c-0.542726,1.38149 -1.87573,2.28999 -3.36,2.29l7.68128e-08,1.88422e-10c-0.55146,-0.00135276 -1.04915,0.330439 -1.26,0.84l-1.246e-06,-1.35874e-06c5.58388,6.08913 13.4783,9.53886 21.74,9.5l7.91773e-07,-3.0111e-09c6.31965,-0.0240336 12.4761,-2.00864 17.62,-5.68l1.17495e-08,-4.94832e-08c0.202348,-0.852191 0.30967,-1.72418 0.320003,-2.6Z" fill="#FFCABF"></path><path fill="none" stroke="#191816" stroke-linecap="round" stroke-linejoin="round" stroke-width="1" d="M77.24,56.52c0,0 6.26,-1.34 3.38,-7.09"></path><g stroke-linecap="round" stroke-width="1" stroke="#191816" fill="none" stroke-linejoin="round"><use xlink:href="#a"></use><path d="M54.93,46.86l-3.29497e-07,1.0674e-07c2.84067,-0.920227 5.89933,-0.920227 8.74,-2.1348e-07"></path></g><use fill="#FFE500" xlink:href="#b"></use><path d="M54.47,26.31l-5.72e-08,-5.15708e-10c-1.9053,-0.017178 -3.46379,1.51345 -3.48096,3.41876c-0.00834913,0.926047 0.355955,1.81657 1.01096,2.47124l4.88,-4.88l-3.4464e-08,-3.42918e-08c-0.641038,-0.637835 -1.50575,-1.00023 -2.41,-1.01Z" fill="#FFFACF"></path><use fill="none" stroke="#191816" stroke-linejoin="round" stroke-width="1" xlink:href="#b"></use><use xlink:href="#c" fill="#FFE500"></use><path fill="#FFFACF" d="M64.13,32.52l2.01076e-08,5.62039e-12c-1.90538,-0.000532104 -3.45043,1.54365 -3.45096,3.44904c-0.000255685,0.915567 0.363432,1.79369 1.01096,2.44096l4.88,-4.88l4.80107e-09,4.77633e-09c-0.648432,-0.64509 -1.52534,-1.00807 -2.44,-1.01Z"></path><use xlink:href="#c" stroke-width="1" stroke="#191816" fill="none" stroke-linejoin="round"></use><path opacity="0.15" fill="#191816" d="M45.84,81.17c0,1.52 -5.87,2.76 -13.11,2.76c-7.24,0 -13.11,-1.24 -13.11,-2.76c0,-1.52 5.87,-2.76 13.11,-2.76c7.24,0 13.11,1.23 13.11,2.76Z"></path><path d="M54.27,73.48l1.08653e-08,7.40049e-08c-0.0765003,-0.521053 -0.406037,-0.97042 -0.88,-1.2l-5.12786e-09,-2.36079e-09c-0.479458,-0.220737 -1.03693,-0.190805 -1.49,0.08l9.96704e-07,-5.61245e-07c-2.70355,1.52237 -5.81513,2.16217 -8.9,1.83l1.36581e-07,2.40552e-08c-0.853944,-0.1504 -1.66813,0.419935 -1.81853,1.27388c-0.0312269,0.177301 -0.0317266,0.358651 -0.00147735,0.536121l0.45,3.24l-4.48195e-08,-2.96793e-07c0.105339,0.697555 0.66843,1.23598 1.37,1.31l-1.55768e-07,-1.03083e-08c3.40678,0.225453 6.82133,-0.303802 10,-1.55l-7.11455e-08,2.87638e-08c1.19452,-0.48294 1.89597,-1.72811 1.69,-3Z" stroke-width="1" stroke="#191816" fill="#6DD627" stroke-linejoin="round"></path><path fill="#C8FFA1" d="M49,77.28l2.13298e-08,-8.64557e-08c-0.156102,0.632724 -0.795572,1.0191 -1.4283,0.863001c-0.632724,-0.156102 -1.0191,-0.795572 -0.863001,-1.4283c0.155428,-0.629995 0.790365,-1.01628 1.4213,-0.864705l9.15702e-08,2.28166e-08c0.632885,0.157697 1.02089,0.795459 0.87,1.43Z"></path><use xlink:href="#d" fill="#FFE500"></use><path fill="#FFFACF" d="M34.11,70.82l5.24859e-08,-1.01976e-05c0.00585276,-1.13769 -0.911684,-2.06472 -2.04938,-2.07057c-0.0202134,-0.000103986 -0.0404272,8.95477e-05 -0.0606349,0.000580538h-6.9h-9.04826e-08c-1.14323,4.99721e-08 -2.07,0.926771 -2.07,2.07Z"></path><use xlink:href="#e" fill="#FFE500"></use><path fill="#FFFACF" d="M30.66,72.89h-6.9l7.72838e-08,1.4424e-11c-1.14323,-0.000213506 -2.07017,0.926384 -2.07039,2.06961c-2.51433e-06,0.0134631 0.000126316,0.0269259 0.000386473,0.0403865h11l2.07475e-08,-8.50983e-07c0.0277295,-1.13737 -0.871811,-2.08187 -2.00918,-2.1096c-0.00693979,-0.000169195 -0.0138804,-0.00030331 -0.0208215,-0.00040234Z"></path><use xlink:href="#f" fill="#FFE500"></use><path fill="#FFFACF" d="M30.66,77h-6.9h-9.04826e-08c-1.14323,4.99721e-08 -2.07,0.926771 -2.07,2.07h11l4.88524e-08,-9.85334e-06c0.00559971,-1.12998 -0.900131,-2.05355 -2.03001,-2.06999Z"></path><use xlink:href="#g" fill="#FFE500"></use><path fill="#FFFACF" d="M41.7,77h-6.9h-9.04826e-08c-1.14323,4.99721e-08 -2.07,0.926771 -2.07,2.07h11l4.88524e-08,-9.85334e-06c0.00559971,-1.12998 -0.900131,-2.05355 -2.03001,-2.06999Z"></path><use xlink:href="#h" fill="#FFE500"></use><path fill="#FFFACF" d="M41.7,72.89h-6.9l7.72838e-08,1.4424e-11c-1.14323,-0.000213506 -2.07017,0.926384 -2.07039,2.06961c-2.51433e-06,0.0134631 0.000126316,0.0269259 0.000386473,0.0403865h11l2.07475e-08,-8.50983e-07c0.0277295,-1.13737 -0.871811,-2.08187 -2.00918,-2.1096c-0.00693979,-0.000169195 -0.0138804,-0.00030331 -0.0208215,-0.00040234Z"></path><use xlink:href="#d" stroke-linecap="round" stroke-width="1" stroke="#191816" fill="none" stroke-linejoin="round"></use><use fill="#FFE500" xlink:href="#i"></use><path d="M36.18,64.61h-6.9h-9.04826e-08c-1.14323,4.99721e-08 -2.07,0.926771 -2.07,2.07h11l4.88524e-08,-9.85334e-06c0.00559971,-1.12998 -0.900131,-2.05355 -2.03001,-2.06999Z" fill="#FFFACF"></path><use fill="none" stroke="#191816" stroke-linecap="round" stroke-linejoin="round" stroke-width="1" xlink:href="#i"></use><g stroke-linecap="round" stroke-width="1" stroke="#191816" fill="none" stroke-linejoin="round"><use xlink:href="#e"></use><use xlink:href="#f"></use><use xlink:href="#g"></use><use xlink:href="#h"></use></g><use fill="#FFE500" xlink:href="#j"></use><path d="M43.08,68.75h-6.9h-9.04826e-08c-1.14323,4.99721e-08 -2.07,0.926771 -2.07,2.07h11l4.88524e-08,-9.85334e-06c0.00559971,-1.12998 -0.900131,-2.05355 -2.03001,-2.06999Z" fill="#FFFACF"></path><use fill="none" stroke="#191816" stroke-linecap="round" stroke-linejoin="round" stroke-width="1" xlink:href="#j"></use><path d="M22,60.11l3.22,-1.11l-1.7685e-08,6.68034e-09c0.160163,-0.0604998 0.240955,-0.239382 0.180456,-0.399545c-0.0314544,-0.08327 -0.0971855,-0.149001 -0.180455,-0.180455l-2.67,-0.89l9.66253e-08,3.27552e-08c-0.362491,-0.122882 -0.647118,-0.407509 -0.77,-0.77l-0.89,-2.67l6.0877e-09,1.93634e-08c-0.0397191,-0.126336 -0.157578,-0.211682 -0.29,-0.21l5.53315e-09,-6.13056e-11c-0.131407,0.00145594 -0.247616,0.0856078 -0.29,0.21l-0.89,2.67l3.23787e-10,-9.81466e-10c-0.120145,0.364184 -0.405816,0.649855 -0.77,0.77l-2.65,0.92l-4.44506e-09,2.31289e-09c-0.151878,0.0790269 -0.210936,0.266213 -0.131909,0.418091c0.0293832,0.0564703 0.0754388,0.102526 0.131909,0.131909l2.67,0.89l1.72812e-08,5.7011e-09c0.364184,0.120145 0.649855,0.405816 0.77,0.77l0.89,2.67l1.75195e-09,5.14183e-09c0.0423837,0.124392 0.158593,0.208544 0.29,0.21l1.49831e-08,1.90333e-10c0.132422,0.00168217 0.250281,-0.0836639 0.29,-0.21Z" stroke-linecap="round" stroke-width="1" stroke="#191816" fill="#FFEC60" stroke-linejoin="round"></path><path fill="none" stroke="#191816" stroke-width="1" d="M48.6701,51.9699c0.226504,0.226504 0.226504,0.59374 0,0.820244c-0.226504,0.226504 -0.59374,0.226504 -0.820244,0c-0.226504,-0.226504 -0.226504,-0.59374 0,-0.820244c0.226504,-0.226504 0.59374,-0.226504 0.820244,0"></path></svg>