<svg xmlns="http://www.w3.org/2000/svg" width="541" height="105" viewBox="0 0 541 105"><g fill="none" fill-rule="evenodd"><path fill="#24B5AB" d="M76 61.886c0 15.19-12.316 27.504-27.505 27.504h-30.4C8.102 89.39 0 81.288 0 71.293V25.695C0 11.505 11.507 0 25.693 0h3.624C43.507 0 55.01 11.5 55.01 25.695v9.462C67.056 38.082 76 48.937 76 61.887zM19.05 34.743c-5.524 0-10.002-4.47-10.002-8.686 0-9.193 7.454-16.647 16.645-16.647h3.624c9.194 0 16.645 7.45 16.645 16.647v4.3c0 .254 0 0 0 0 0 2.422-4.47 4.386-10.002 4.386H19.05zm14.245 21.132c0 2.786-1.377 3.427-1.377 3.427-.75.813-1.428 2.29-1.428 3.392v6.157c0 1.55-1.258 2.81-2.804 2.81-1.55 0-2.805-1.26-2.805-2.8V62.7c0-1.09-.63-2.617-1.41-3.383 0 0-1.38-.65-1.38-3.437 0-3.077 2.51-5.57 5.61-5.57 3.1 0 5.61 2.493 5.61 5.57z"/><path fill="#787878" d="M99 7.488h28.08c2.714 0 5.393.327 8.04.98 2.644.655 5 1.72 7.07 3.2 2.07 1.48 3.747 3.39 5.036 5.73 1.29 2.34 1.933 5.162 1.933 8.465 0 4.13-1.16 7.536-3.46 10.22-2.31 2.684-5.33 4.61-9.06 5.78v.207c2.24.275 4.32.912 6.25 1.91 1.93.998 3.58 2.27 4.93 3.82 1.35 1.548 2.42 3.337 3.2 5.367.78 2.03 1.17 4.216 1.17 6.555 0 3.992-.78 7.312-2.34 9.962-1.56 2.65-3.61 4.783-6.16 6.4-2.54 1.618-5.46 2.77-8.75 3.458-3.29.69-6.63 1.033-10.02 1.033H99V7.488zm12.82 29.73h11.7c4.273 0 7.478-.843 9.615-2.53 2.136-1.685 3.205-3.904 3.205-6.657 0-3.16-1.103-5.52-3.307-7.07-2.205-1.55-5.75-2.32-10.632-2.32h-10.58v18.58zm0 32.208h11.802c1.628 0 3.374-.103 5.24-.31 1.865-.206 3.577-.688 5.137-1.445 1.56-.75 2.84-1.84 3.86-3.25 1.01-1.41 1.52-3.32 1.52-5.73 0-3.85-1.24-6.53-3.72-8.05-2.48-1.51-6.33-2.27-11.55-2.27H111.8v21.06zm94.46 11.15h-11.6v-7.95h-.203c-1.154 2.478-2.917 4.628-5.29 6.452-2.375 1.824-5.597 2.736-9.667 2.736-3.255 0-6.02-.534-8.292-1.6-2.272-1.067-4.12-2.512-5.545-4.336-1.424-1.824-2.44-3.906-3.052-6.246-.61-2.34-.91-4.783-.91-7.33V31.026h12.21V56.11c0 1.376.07 2.907.21 4.593s.49 3.27 1.07 4.75c.58 1.478 1.46 2.717 2.65 3.715 1.19.998 2.87 1.497 5.04 1.497 2.04 0 3.75-.344 5.14-1.033 1.39-.688 2.55-1.617 3.46-2.787.92-1.17 1.58-2.512 1.99-4.026.405-1.52.61-3.1.61-4.75V31.02h12.21v49.55zm6.043-39.022v-10.53h10.073V16.677h12.21v14.35h13.43v10.528h-13.43v21.678c0 2.478.457 4.44 1.373 5.884.91 1.446 2.73 2.168 5.44 2.168 1.08 0 2.27-.12 3.56-.36 1.29-.242 2.3-.638 3.05-1.188v10.426c-1.29.62-2.87 1.05-4.73 1.29-1.87.24-3.51.362-4.94.362-3.26 0-5.92-.362-7.99-1.084-2.07-.72-3.7-1.82-4.89-3.3-1.19-1.48-2-3.32-2.45-5.52-.44-2.2-.66-4.75-.66-7.64V41.56H212.3zm37.585 0v-10.53h10.073V16.677h12.21v14.35h13.43v10.528h-13.43v21.678c0 2.478.46 4.44 1.38 5.884.92 1.446 2.73 2.168 5.45 2.168 1.09 0 2.27-.12 3.56-.36 1.29-.242 2.31-.638 3.06-1.188v10.426c-1.29.62-2.86 1.05-4.73 1.29-1.86.24-3.51.362-4.93.362-3.25 0-5.91-.362-7.98-1.084-2.07-.72-3.7-1.82-4.882-3.3-1.19-1.48-2-3.32-2.444-5.52-.44-2.2-.66-4.75-.66-7.64V41.56h-10.08zm52.948 18.58c.407 3.718 1.832 6.608 4.274 8.673 2.44 2.064 5.392 3.097 8.85 3.097 3.053 0 5.614-.637 7.683-1.91 2.07-1.273 3.883-2.873 5.443-4.8l8.75 6.71c-2.85 3.578-6.037 6.124-9.564 7.638-3.527 1.515-7.224 2.272-11.09 2.272-3.663 0-7.122-.62-10.378-1.86-3.255-1.237-6.07-2.992-8.444-5.263-2.374-2.27-4.257-5-5.647-8.2-1.39-3.2-2.086-6.76-2.086-10.68s.695-7.48 2.086-10.68c1.39-3.2 3.273-5.93 5.647-8.2 2.374-2.27 5.19-4.02 8.444-5.26 3.256-1.24 6.715-1.85 10.378-1.85 3.392 0 6.495.6 9.31 1.804 2.814 1.205 5.222 2.94 7.223 5.213 2 2.27 3.56 5.073 4.68 8.41 1.12 3.337 1.68 7.174 1.68 11.51v3.406h-37.24zm25.03-9.29c-.07-3.647-1.188-6.52-3.358-8.62-2.17-2.098-5.19-3.147-9.056-3.147-3.662 0-6.562 1.066-8.7 3.2-2.135 2.133-3.44 4.99-3.916 8.568h25.03zm21.51-19.82h12.208v7.846h.203c1.357-2.89 3.29-5.127 5.8-6.71 2.51-1.583 5.392-2.374 8.648-2.374.746 0 1.475.07 2.187.206.712.138 1.442.31 2.188.516v11.975c-1.018-.275-2.018-.5-3.002-.67-.983-.173-1.95-.26-2.9-.26-2.848 0-5.137.534-6.867 1.6-1.73 1.068-3.05 2.29-3.96 3.666-.91 1.37-1.52 2.75-1.83 4.12-.3 1.37-.46 2.41-.46 3.09v26.53H349.4V31.02zm69.022 14.866c-1.424-1.514-2.917-2.72-4.477-3.613-1.56-.895-3.15-1.342-4.78-1.342-2.24 0-4.24.413-6 1.238-1.76.826-3.27 1.927-4.53 3.304-1.25 1.376-2.2 2.96-2.85 4.748-.64 1.79-.96 3.648-.96 5.575s.32 3.785.97 5.574c.65 1.79 1.6 3.372 2.85 4.75 1.26 1.375 2.77 2.476 4.53 3.302 1.77.826 3.77 1.24 6.01 1.24 1.9 0 3.66-.397 5.29-1.188 1.63-.792 3.02-1.945 4.17-3.46l8.14 8.88c-1.22 1.238-2.63 2.305-4.22 3.2-1.59.894-3.2 1.617-4.83 2.167-1.62.55-3.18.946-4.68 1.187-1.49.24-2.78.362-3.86.362-3.66 0-7.12-.62-10.38-1.86-3.253-1.237-6.07-2.992-8.442-5.263-2.373-2.27-4.255-5-5.646-8.2-1.39-3.2-2.083-6.76-2.083-10.68s.693-7.48 2.083-10.68c1.39-3.2 3.275-5.93 5.65-8.2 2.374-2.27 5.19-4.02 8.445-5.26 3.257-1.24 6.716-1.85 10.38-1.85 3.12 0 6.254.6 9.41 1.804 3.152 1.205 5.92 3.114 8.29 5.73l-8.45 8.568zm58.137 34.685h-11.6v-7.95h-.202c-1.153 2.48-2.917 4.63-5.29 6.453-2.375 1.824-5.597 2.736-9.666 2.736-3.256 0-6.02-.534-8.292-1.6-2.273-1.067-4.12-2.512-5.545-4.336-1.425-1.824-2.442-3.906-3.053-6.246-.61-2.34-.915-4.783-.915-7.33V31.026h12.21V56.11c0 1.376.067 2.907.202 4.593.136 1.686.492 3.27 1.07 4.75.575 1.478 1.457 2.717 2.644 3.715 1.187.998 2.866 1.497 5.036 1.497 2.035 0 3.748-.344 5.138-1.033 1.39-.688 2.544-1.617 3.46-2.787.915-1.17 1.576-2.512 1.983-4.026.407-1.52.61-3.1.61-4.75V31.02h12.21v49.55zm11.742-49.55h11.6v7.432h.202c1.76-3.028 4.13-5.23 7.12-6.607 2.98-1.376 6.2-2.064 9.66-2.064 3.73 0 7.09.67 10.07 2.013 2.98 1.34 5.52 3.18 7.63 5.52 2.1 2.34 3.69 5.09 4.78 8.26 1.08 3.16 1.63 6.57 1.63 10.22 0 3.64-.58 7.05-1.73 10.22-1.16 3.16-2.77 5.91-4.83 8.25-2.07 2.34-4.56 4.18-7.48 5.52-2.92 1.34-6.11 2.01-9.57 2.01-2.31 0-4.34-.24-6.11-.73-1.76-.48-3.32-1.1-4.68-1.86-1.36-.76-2.51-1.57-3.46-2.43-.95-.86-1.73-1.706-2.34-2.53h-.31v29.84h-12.21V31.02zM528.79 55.8c0-1.927-.32-3.785-.966-5.575-.644-1.79-1.594-3.372-2.848-4.748-1.255-1.377-2.764-2.478-4.528-3.304-1.764-.825-3.764-1.238-6.003-1.238-2.238 0-4.24.413-6.003 1.238-1.763.826-3.272 1.927-4.527 3.304-1.255 1.376-2.205 2.96-2.85 4.748-.643 1.79-.966 3.648-.966 5.575s.32 3.785.96 5.574c.64 1.79 1.59 3.372 2.85 4.75 1.25 1.375 2.76 2.476 4.52 3.302 1.76.826 3.76 1.24 6 1.24s4.24-.414 6-1.24c1.76-.826 3.27-1.927 4.53-3.303 1.25-1.377 2.2-2.96 2.85-4.75.64-1.788.96-3.646.96-5.573z"/></g></svg>