<?xml version="1.0" encoding="UTF-8"?><svg version="1.1" viewBox="0 0 100 112" xmlns="http://www.w3.org/2000/svg" xmlns:xlink="http://www.w3.org/1999/xlink"><!--Generated by IJSVG (https://github.com/iconjar/IJSVG)--><g transform="matrix(1,0,0,1,-21.21,79.78)"><path fill="#E8F4FA" d="M78.2843,27.7157c15.621,15.621 15.621,40.9476 0,56.5685c-15.621,15.621 -40.9476,15.621 -56.5685,0c-15.621,-15.621 -15.621,-40.9476 -7.10543e-15,-56.5685c15.621,-15.621 40.9476,-15.621 56.5685,-7.10543e-15" transform="matrix(0.395546,-0.918446,0.918446,0.395546,0,0)"></path></g><g stroke-linecap="round" stroke-width="1" stroke="#191816" fill="none" stroke-linejoin="round"><path d="M50.51,45.88l-1.1283e-07,-5.52894e-05c0.0162222,7.94184 -6.40876,14.3931 -14.3506,14.4093c-0.973751,0.00198901 -1.94519,-0.094934 -2.89935,-0.289277"></path><path d="M33.26,52.79v-6.91l1.9201e-07,-0.000326183c0.00569673,-9.52463 7.7257,-17.2443 17.2503,-17.2497v0l2.39618e-08,4.54747e-13c9.52678,0.000180157 17.2497,7.72322 17.2497,17.25l1.03037e-06,-5.84267e-05c-0.0884379,5.01509 -1.37779,9.93592 -3.75997,14.35"></path><path d="M57.56,58.25l3.35165e-07,1.99974e-07c3.06809,1.83055 6.70743,2.45434 10.21,1.75"></path><path d="M55.65,61.13l5.25198e-07,3.19293e-07c2.78439,1.69276 5.98143,2.58544 9.24,2.58l2.0948e-07,1.99186e-10c0.859842,0.000817587 1.71866,-0.0593329 2.56999,-0.179999"></path><path d="M53.31,63.73l8.95352e-07,5.83607e-07c3.44433,2.24508 7.46858,3.43706 11.58,3.43c0.49,0 1,0 1.46,0"></path><path d="M50.51,70l2.72787e-06,-1.45863e-06c-3.48591,1.86397 -7.31941,2.98746 -11.26,3.3"></path><path d="M50.51,70l3.78032e-08,2.01753e-08c3.49005,1.86261 7.32651,2.98598 11.27,3.3"></path><path d="M57.35,76.1l-9.69404e-07,-1.5691e-07c-2.35398,-0.381022 -4.65156,-1.05283 -6.84,-2l-1.5447e-06,6.70719e-07c-2.18749,0.949823 -4.4854,1.62173 -6.84,2"></path><path d="M48.21,77.51h4.6"></path><path d="M36.71,53.17v-7.29l1.56319e-13,2.08374e-06c-1.15082e-06,-7.62153 6.17847,-13.8 13.8,-13.8v0l-6.03217e-07,7.10543e-15c7.62153,-3.33148e-07 13.8,6.17847 13.8,13.8l8.17349e-07,-4.4461e-05c-0.0885333,4.81611 -1.41803,9.52794 -3.85998,13.68"></path><path d="M40.16,52.18v-6.3l1.17545e-07,-0.000121102c0.00557945,-5.71386 4.63626,-10.3444 10.3501,-10.3499v0l5.93589e-07,6.96332e-12c5.7161,6.721e-05 10.3499,4.6339 10.3499,10.35c-0.3,13.23 -9.54,23.89 -24.17,24.7"></path><path d="M50.5,66l2.61168e-06,1.77131e-06c4.08954,2.77364 8.87267,4.34954 13.81,4.55"></path><path d="M33.26,52.79l2.26148e-07,9.24892e-08c0.914269,0.373914 1.89223,0.567469 2.88,0.57l1.33466e-07,1.13687e-13c4.12557,3.62298e-06 7.47,-3.34443 7.47001,-7.46999c2.92921e-09,-0.00333557 -2.22828e-06,-0.00667113 -6.69362e-06,-0.0100067l8.52651e-14,-1.04187e-06c5.75409e-07,-3.81076 3.08924,-6.9 6.9,-6.9v0l-3.83032e-07,5.56348e-10c3.80524,-0.00552707 6.89447,3.07475 6.9,6.87999c9.6903e-06,0.00667151 9.69067e-06,0.013343 1.10919e-09,0.0200145l-1.84611e-07,-0.000385228c0.00573589,11.7471 -9.51252,21.2746 -21.2596,21.2804c-0.00333472,1.62828e-06 -0.00666943,2.47233e-06 -0.0100042,2.53216e-06c-0.49,0 -1,0 -1.46,0"></path><path d="M33.31,56.44l-5.99785e-07,-1.60171e-07c5.8321,1.55744 11.8225,-1.90785 13.3799,-7.73995c0.245653,-0.919887 0.370057,-1.86793 0.370052,-2.82005l2.81493e-08,-9.74891e-06c0.00549776,-1.9031 1.54691,-3.4445 3.45001,-3.44999v0l1.43378e-07,-1.66205e-09c1.90525,-0.0220859 3.46767,1.50452 3.48976,3.40978c0.000155411,0.0134066 0.000232669,0.0268141 0.000231769,0.0402216l7.06699e-07,0.00134358c0.00480552,9.84171 -7.96958,17.8239 -17.8113,17.8287c-0.0166825,8.14577e-06 -0.0333651,-7.13499e-06 -0.0500476,-4.58423e-05l3.68716e-07,-3.50603e-10c-0.859842,0.000817614 -1.71866,-0.0593328 -2.56999,-0.179999"></path></g><path fill="rgba(35,31,32,0.15)" d="M59.6981,85.4938c5.38924,0.671702 5.38924,1.76075 0,2.43245c-5.38924,0.671702 -14.1269,0.671702 -19.5161,0c-5.38924,-0.671702 -5.38924,-1.76075 0,-2.43245c5.38924,-0.671702 14.1269,-0.671702 19.5161,0"></path><path d="M24.52,61.41c-1.10456,0 -2,-0.89544 -2,-2v-11.53c0,-1.10456 0.89544,-2 2,-2h51.77c1.10456,0 2,0.89544 2,2v11.53c0,1.10456 -0.89544,2 -2,2Z" stroke-linecap="round" stroke-width="1" stroke="#191816" fill="#FFF" stroke-linejoin="round"></path><path fill="#525252" d="M38.9,58l-8.18686e-09,-1.23137e-10c-0.356739,-0.00536541 -0.644635,-0.293261 -0.65,-0.65v-1.18l2.32529e-08,-1.93091e-06c0.00227532,-0.188972 -0.10219,-0.36308 -0.270002,-0.449999l4.30214e-08,8.54951e-09c-0.0759243,-0.0150882 -0.154076,-0.0150882 -0.23,-5.02291e-08l-4.51824e-09,2.09539e-11c-0.103468,0.000479949 -0.20444,0.0318162 -0.29,0.09l-1,0.71l1.75216e-08,-1.27071e-08c-0.107588,0.0780259 -0.237097,0.120029 -0.37,0.12l3.15595e-10,3.05533e-13c-0.358985,-0.000344981 -0.64972,-0.291639 -0.649375,-0.650624c3.52277e-05,-0.0366577 0.00317143,-0.0732467 0.00937506,-0.109376l-3.09204e-08,2.23537e-07c0.0235699,-0.170397 0.11799,-0.322923 0.26,-0.42l1.5,-1.07l-1.29819e-08,9.44267e-09c0.13125,-0.0954673 0.209225,-0.247704 0.21,-0.41l1.19549e-08,2.76157e-06c-0.00069035,-0.159574 -0.0790415,-0.308816 -0.209998,-0.400001l-1.5,-1.07l6.25776e-08,4.27778e-08c-0.14201,-0.0970775 -0.23643,-0.249602 -0.26,-0.42l-1.88549e-09,-1.09808e-08c-0.0607515,-0.353807 0.176817,-0.689873 0.530624,-0.750625c0.036129,-0.00620363 0.072718,-0.00933983 0.109376,-0.00937505l4.06634e-09,-8.66862e-13c0.132903,-2.85079e-05 0.262412,0.0419741 0.37,0.12l1,0.71l-4.56121e-08,-3.10179e-08c0.0855598,0.0581838 0.186532,0.0895201 0.29,0.09l7.70901e-09,4.74003e-11c0.0805992,0.00049558 0.159914,-0.0201952 0.23,-0.06l-6.1686e-09,2.99995e-09c0.167922,-0.0816648 0.273244,-0.253301 0.27,-0.44v-1.27l7.10543e-15,-5.44996e-08c5.42052e-08,-0.358985 0.291015,-0.65 0.65,-0.65c0.358985,5.42052e-08 0.65,0.291015 0.65,0.65v1.22l1.16228e-09,2.0918e-07c0.00104619,0.188281 0.109883,0.35931 0.28,0.44l-9.77857e-09,-5.55642e-09c0.0671351,0.0381478 0.142793,0.0587818 0.22,0.06l2.94326e-08,2.50232e-10c0.106783,0.000907835 0.21135,-0.0304623 0.3,-0.09l1,-0.71l-6.26952e-08,4.49925e-08c0.110669,-0.0794202 0.243791,-0.121459 0.38,-0.12l-2.92237e-08,1.6712e-10c0.358979,-0.00205298 0.651654,0.287293 0.653707,0.646272c0.00121177,0.211887 -0.100931,0.411065 -0.273707,0.533728l-1.5,1.07l2.19472e-08,-1.52817e-08c-0.130957,0.0911844 -0.209309,0.240426 -0.21,0.4l-1.20616e-08,-2.52645e-06c0.00077442,0.162296 0.0787487,0.314533 0.209998,0.410001l1.5,1.07l-4.31168e-09,-3.12212e-09c0.138559,0.100331 0.231979,0.251241 0.26,0.42l1.02994e-08,5.99822e-08c0.0607515,0.353807 -0.176817,0.689873 -0.530624,0.750625c-0.036129,0.00620363 -0.072718,0.00933982 -0.109376,0.00937505v0l1.32367e-08,-1.4176e-10c-0.136209,0.00145874 -0.269331,-0.0405798 -0.38,-0.12l-1,-0.71l-1.54644e-08,-1.0386e-08c-0.0886496,-0.0595377 -0.193217,-0.0909078 -0.3,-0.09l3.19179e-08,6.057e-09c-0.0726847,-0.0137932 -0.147315,-0.0137932 -0.22,-1.2114e-08l1.50133e-08,-7.58484e-09c-0.170066,0.0859187 -0.278055,0.259473 -0.28,0.45v1.21l-4.28628e-10,-1.39226e-08c0.0110466,0.358815 -0.270876,0.658647 -0.629691,0.669694c-0.00676732,0.00020834 -0.0135375,0.000310933 -0.020308,0.000307741Z"></path><path d="M38.9,50.33l-6.55672e-09,7.10543e-15c0.0828427,-3.62117e-09 0.15,0.0671573 0.15,0.15v1.22l-3.44907e-09,-1.13819e-06c0.00114088,0.376558 0.21372,0.72055 0.549999,0.890001l-5.70583e-08,-2.92347e-08c0.139322,0.0713839 0.293458,0.109061 0.45,0.11l-4.94389e-08,-1.76072e-10c0.211826,0.000754406 0.418421,-0.065776 0.59,-0.19l1,-0.7l-1.59611e-09,4.67786e-10c0.029382,-0.0086113 0.060618,-0.0086113 0.09,-9.35572e-10l-7.10166e-10,2.5608e-11c0.0476025,-0.00171667 0.0928118,0.020888 0.12,0.06l1.79304e-09,1.82927e-09c0.0571714,0.0583265 0.0571714,0.151673 -3.58609e-09,0.21l-1.5,1.07l-4.66211e-08,3.31474e-08c-0.450112,0.320027 -0.555566,0.944349 -0.235539,1.39446c0.0647925,0.0911293 0.14441,0.170747 0.235539,0.235539l1.5,1.07l-1.99971e-09,-1.76357e-09c0.0579899,0.0511423 0.063541,0.139611 0.0123987,0.197601c-0.00386977,0.00438791 -0.00801079,0.00852893 -0.0123987,0.0123987l9.24665e-10,-1.09443e-09c-0.0300827,0.0356057 -0.0734658,0.0572973 -0.12,0.06h-0.09l-1,-0.71l-1.1027e-08,-7.70125e-09c-0.172785,-0.120673 -0.379279,-0.183671 -0.59,-0.18l-4.06022e-08,-7.15538e-10c-0.156978,-0.00276642 -0.312001,0.0351281 -0.45,0.11l-1.1224e-07,5.65576e-08c-0.33628,0.16945 -0.548859,0.513442 -0.55,0.89v1.21l3.57482e-09,4.80559e-08c0.00573587,0.0771068 -0.0521217,0.144264 -0.129229,0.15c-0.00691429,0.000514344 -0.0138572,0.000514342 -0.0207715,-7.14965e-09l-6.55671e-09,-7.10543e-15c-0.0828427,-3.62117e-09 -0.15,-0.0671573 -0.15,-0.15v-1.27l1.73605e-08,-8.36336e-06c0.000775519,-0.374357 -0.207606,-0.717795 -0.540007,-0.889995l2.89777e-08,1.56313e-08c-0.141127,-0.0761277 -0.299701,-0.114047 -0.46,-0.11l2.55692e-08,1.94213e-10c-0.207318,-0.00157466 -0.41,0.0613267 -0.58,0.18l-1,0.71l-3.76239e-09,1.46868e-09c-0.0257215,0.0100407 -0.0542785,0.0100407 -0.08,-2.93737e-09l1.45922e-09,4.24137e-10c-0.0354383,-0.0103005 -0.0668541,-0.0312449 -0.0899916,-0.0599961l4.85578e-09,5.58309e-09c-0.052364,-0.0602072 -0.0523641,-0.149793 -9.71156e-09,-0.21l1.5,-1.07l2.39493e-08,-1.70278e-08c0.450112,-0.320027 0.555566,-0.944349 0.235539,-1.39446c-0.0647925,-0.0911293 -0.14441,-0.170747 -0.235539,-0.235539l-1.5,-1.04l4.85578e-09,5.58308e-09c-0.052364,-0.0602072 -0.0523641,-0.149793 -9.71156e-09,-0.21l7.40739e-09,-9.93118e-09c0.0303758,-0.0407253 0.0793018,-0.0633065 0.13,-0.06l7.01953e-09,-2.74014e-09c0.0257215,-0.0100407 0.0542785,-0.0100407 0.08,5.4803e-09l1,0.7l-3.57163e-08,-2.58601e-08c0.16881,0.122226 0.371591,0.188654 0.58,0.19l-2.91098e-08,-1.17133e-10c0.159923,0.000643489 0.317668,-0.0370782 0.46,-0.11l7.65481e-08,-3.96567e-08c0.3324,-0.172204 0.540779,-0.515643 0.54,-0.89v-1.19l7.10543e-15,-2.26494e-08c1.25089e-08,-0.0828427 0.0671573,-0.15 0.15,-0.15m0,-1l7.13135e-09,-6.12204e-11c-0.632864,0.0054326 -1.14457,0.517136 -1.15,1.15v1.22l-1,-0.71l-1.5259e-08,-1.04535e-08c-0.197401,-0.135234 -0.430724,-0.208365 -0.67,-0.21l5.01527e-08,-2.09546e-10c-0.371802,0.00155343 -0.720733,0.179731 -0.94,0.48l5.93475e-08,-8.23084e-08c-0.36823,0.510694 -0.25274,1.2232 0.257955,1.59143c0.00399651,0.00288163 0.00801165,0.00573733 0.0120452,0.0085669l1.5,1.07l-1.52,1.07l-6.40513e-08,4.52894e-08c-0.518586,0.366682 -0.641729,1.08433 -0.275047,1.60292c0.00167345,0.00236671 0.00335585,0.00472709 0.00504715,0.00708108l3.16013e-08,4.32755e-08c0.219267,0.300269 0.568198,0.478447 0.94,0.48l-4.91322e-08,1.38236e-10c0.240972,-0.000677985 0.475532,-0.0776975 0.67,-0.22l1,-0.7v1.21l1.42109e-14,1.18671e-07c9.59016e-08,0.635127 0.514873,1.15 1.15,1.15c0.635127,-9.59016e-08 1.15,-0.514873 1.15,-1.15v-1.21l1,0.7l-5.05021e-08,-3.6955e-08c0.194468,0.142302 0.429028,0.219322 0.67,0.22l-1.29629e-08,5.41647e-11c0.371802,-0.00155345 0.720733,-0.179731 0.94,-0.48l-1.14949e-08,1.65103e-08c0.3629,-0.521239 0.234542,-1.23798 -0.286697,-1.60088c-0.00441283,-0.00307233 -0.00884715,-0.00611367 -0.0133026,-0.0091238l-1.5,-1.07l1.5,-1.07l-1.2067e-08,8.46514e-09c0.515426,-0.361577 0.640144,-1.07253 0.278567,-1.58795c-0.00282957,-0.00403353 -0.00568527,-0.00804868 -0.0085669,-0.0120452l-9.66892e-09,-1.32408e-08c-0.219267,-0.300269 -0.568198,-0.478447 -0.94,-0.48l6.20484e-08,8.94225e-10c-0.253986,-0.00366037 -0.502583,0.0733695 -0.71,0.22l-1,0.71v-1.23v7.10543e-15c0,-0.635127 -0.514873,-1.15 -1.15,-1.15Z" fill="#191816"></path><path fill="#525252" d="M50.4,58l-8.18686e-09,-1.23137e-10c-0.356739,-0.00536541 -0.644635,-0.293261 -0.65,-0.65v-1.18l2.32529e-08,-1.93091e-06c0.00227532,-0.188972 -0.10219,-0.36308 -0.270002,-0.449999l4.30214e-08,8.54951e-09c-0.0759243,-0.0150882 -0.154076,-0.0150882 -0.23,-5.02291e-08l-4.51824e-09,2.09539e-11c-0.103468,0.000479949 -0.20444,0.0318162 -0.29,0.09l-1,0.71l1.75216e-08,-1.27071e-08c-0.107588,0.0780259 -0.237097,0.120029 -0.37,0.12l3.15595e-10,3.05533e-13c-0.358985,-0.000344981 -0.64972,-0.291639 -0.649375,-0.650624c3.52277e-05,-0.0366577 0.00317143,-0.0732467 0.00937506,-0.109376l-3.09204e-08,2.23537e-07c0.0235699,-0.170397 0.11799,-0.322923 0.26,-0.42l1.5,-1.07l-1.29819e-08,9.44267e-09c0.13125,-0.0954673 0.209225,-0.247704 0.21,-0.41l1.19549e-08,2.76157e-06c-0.00069035,-0.159574 -0.0790415,-0.308816 -0.209998,-0.400001l-1.5,-1.07l5.00605e-08,4.31231e-08c-0.147246,-0.126841 -0.22524,-0.316254 -0.210001,-0.510001l-1.88549e-09,-1.09808e-08c-0.0607515,-0.353807 0.176817,-0.689873 0.530624,-0.750625c0.036129,-0.00620363 0.072718,-0.00933983 0.109376,-0.00937505l4.06634e-09,-8.66862e-13c0.132903,-2.85079e-05 0.262412,0.0419741 0.37,0.12l1,0.71l-4.56121e-08,-3.10179e-08c0.0855598,0.0581838 0.186532,0.0895201 0.29,0.09l7.70901e-09,4.74003e-11c0.0805992,0.00049558 0.159914,-0.0201952 0.23,-0.06l-6.1686e-09,2.99995e-09c0.167922,-0.0816648 0.273244,-0.253301 0.27,-0.44v-1.18l7.10543e-15,-5.44996e-08c5.42052e-08,-0.358985 0.291015,-0.65 0.65,-0.65c0.358985,5.42052e-08 0.65,0.291015 0.65,0.65v1.22l1.16228e-09,2.0918e-07c0.00104619,0.188281 0.109883,0.35931 0.28,0.44l-9.77857e-09,-5.55642e-09c0.0671351,0.0381478 0.142793,0.0587818 0.22,0.06l2.94326e-08,2.50232e-10c0.106783,0.000907835 0.21135,-0.0304623 0.3,-0.09l1,-0.71l-6.26952e-08,4.49925e-08c0.110669,-0.0794202 0.243791,-0.121459 0.38,-0.12l-2.92237e-08,1.6712e-10c0.358979,-0.00205298 0.651654,0.287293 0.653707,0.646272c0.00121177,0.211887 -0.100931,0.411065 -0.273707,0.533728l-1.5,1.07l2.19472e-08,-1.52817e-08c-0.130957,0.0911844 -0.209309,0.240426 -0.21,0.4l-1.20616e-08,-2.52645e-06c0.00077442,0.162296 0.0787487,0.314533 0.209998,0.410001l1.5,1.07l-4.31168e-09,-3.12212e-09c0.138559,0.100331 0.231979,0.251241 0.26,0.42l1.02994e-08,5.99822e-08c0.0607515,0.353807 -0.176817,0.689873 -0.530624,0.750625c-0.036129,0.00620363 -0.072718,0.00933982 -0.109376,0.00937505v0l1.32367e-08,-1.4176e-10c-0.136209,0.00145874 -0.269331,-0.0405798 -0.38,-0.12l-1,-0.71l-1.54644e-08,-1.0386e-08c-0.0886496,-0.0595377 -0.193217,-0.0909078 -0.3,-0.09l3.19179e-08,6.057e-09c-0.0726847,-0.0137932 -0.147315,-0.0137932 -0.22,-1.2114e-08l1.50133e-08,-7.58484e-09c-0.170066,0.0859187 -0.278055,0.259473 -0.28,0.45v1.21l-7.4602e-10,-2.20731e-08c0.012126,0.35878 -0.268893,0.659459 -0.627673,0.671585c-0.024119,0.000815168 -0.0482647,0.000286492 -0.0723249,-0.00158357Z"></path><path d="M50.4,50.33l-6.55672e-09,7.10543e-15c0.0828427,-3.62117e-09 0.15,0.0671573 0.15,0.15v1.22l-3.44907e-09,-1.13819e-06c0.00114088,0.376558 0.21372,0.72055 0.549999,0.890001l-5.70583e-08,-2.92347e-08c0.139322,0.0713839 0.293458,0.109061 0.45,0.11l-4.94389e-08,-1.76072e-10c0.211826,0.000754406 0.418421,-0.065776 0.59,-0.19l1,-0.7l-1.59611e-09,4.67786e-10c0.029382,-0.0086113 0.060618,-0.0086113 0.09,-9.35572e-10l-7.10166e-10,2.5608e-11c0.0476025,-0.00171667 0.0928118,0.020888 0.12,0.06l1.79304e-09,1.82927e-09c0.0571714,0.0583265 0.0571714,0.151673 -3.58609e-09,0.21l-1.5,1.07l-4.66211e-08,3.31474e-08c-0.450112,0.320027 -0.555566,0.944349 -0.235539,1.39446c0.0647925,0.0911293 0.14441,0.170747 0.235539,0.235539l1.5,1.07l-1.99971e-09,-1.76357e-09c0.0579899,0.0511423 0.063541,0.139611 0.0123987,0.197601c-0.00386977,0.00438791 -0.00801079,0.00852893 -0.0123987,0.0123987l9.24665e-10,-1.09443e-09c-0.0300827,0.0356057 -0.0734658,0.0572973 -0.12,0.06h-0.09l-1,-0.71l-1.1027e-08,-7.70125e-09c-0.172785,-0.120673 -0.379279,-0.183671 -0.59,-0.18l-4.06022e-08,-7.15538e-10c-0.156978,-0.00276642 -0.312001,0.0351281 -0.45,0.11l-1.1224e-07,5.65576e-08c-0.33628,0.16945 -0.548859,0.513442 -0.55,0.89v1.21l3.57482e-09,4.80559e-08c0.00573587,0.0771068 -0.0521217,0.144264 -0.129229,0.15c-0.00691429,0.000514344 -0.0138572,0.000514342 -0.0207715,-7.14965e-09l-6.55671e-09,-7.10543e-15c-0.0828427,-3.62117e-09 -0.15,-0.0671573 -0.15,-0.15v-1.27l1.73605e-08,-8.36336e-06c0.000775519,-0.374357 -0.207606,-0.717795 -0.540007,-0.889995l2.89777e-08,1.56313e-08c-0.141127,-0.0761277 -0.299701,-0.114047 -0.46,-0.11l2.55692e-08,1.94213e-10c-0.207318,-0.00157466 -0.41,0.0613267 -0.58,0.18l-1,0.71l-3.76239e-09,1.46868e-09c-0.0257215,0.0100407 -0.0542785,0.0100407 -0.08,-2.93737e-09l1.04931e-08,2.45372e-10c-0.0497657,-0.00116374 -0.0968274,-0.0228846 -0.13,-0.06l4.85578e-09,5.58308e-09c-0.052364,-0.0602072 -0.0523641,-0.149793 -9.71156e-09,-0.21l1.54001,-1.04l2.39493e-08,-1.70278e-08c0.450112,-0.320027 0.555566,-0.944349 0.235539,-1.39446c-0.0647925,-0.0911293 -0.14441,-0.170747 -0.235539,-0.235539l-1.5,-1.07l4.85578e-09,5.58309e-09c-0.052364,-0.0602072 -0.0523641,-0.149793 -9.71156e-09,-0.21l7.40739e-09,-9.93118e-09c0.0303758,-0.0407253 0.0793018,-0.0633065 0.13,-0.06l7.01953e-09,-2.74014e-09c0.0257215,-0.0100407 0.0542785,-0.0100407 0.08,5.4803e-09l1,0.7l-3.57163e-08,-2.58601e-08c0.16881,0.122226 0.371591,0.188654 0.58,0.19l-2.91098e-08,-1.17133e-10c0.159923,0.000643489 0.317668,-0.0370782 0.46,-0.11l7.65481e-08,-3.96567e-08c0.3324,-0.172204 0.540779,-0.515643 0.54,-0.89v-1.19l7.10543e-15,-2.26494e-08c1.25089e-08,-0.0828427 0.0671573,-0.15 0.15,-0.15m0,-1l7.13135e-09,-6.12204e-11c-0.632864,0.0054326 -1.14457,0.517136 -1.15,1.15v1.22l-1,-0.71l-1.5259e-08,-1.04535e-08c-0.197401,-0.135234 -0.430724,-0.208365 -0.67,-0.21l5.01527e-08,-2.09546e-10c-0.371802,0.00155343 -0.720733,0.179731 -0.94,0.48l5.93475e-08,-8.23084e-08c-0.36823,0.510694 -0.25274,1.2232 0.257955,1.59143c0.00399651,0.00288163 0.00801165,0.00573733 0.0120452,0.0085669l1.5,1.07l-1.52,1.07l-6.40513e-08,4.52894e-08c-0.518586,0.366682 -0.641729,1.08433 -0.275047,1.60292c0.00167345,0.00236671 0.00335585,0.00472709 0.00504715,0.00708108l3.16013e-08,4.32755e-08c0.219267,0.300269 0.568198,0.478447 0.94,0.48l-4.91322e-08,1.38236e-10c0.240972,-0.000677985 0.475532,-0.0776975 0.67,-0.22l1,-0.7v1.21l1.42109e-14,1.18671e-07c9.59016e-08,0.635127 0.514873,1.15 1.15,1.15c0.635127,-9.59016e-08 1.15,-0.514873 1.15,-1.15v-1.21l1,0.7l-5.05021e-08,-3.6955e-08c0.194468,0.142302 0.429028,0.219322 0.67,0.22l-1.29629e-08,5.41647e-11c0.371802,-0.00155345 0.720733,-0.179731 0.94,-0.48l-1.14949e-08,1.65103e-08c0.3629,-0.521239 0.234542,-1.23798 -0.286697,-1.60088c-0.00441283,-0.00307233 -0.00884715,-0.00611367 -0.0133026,-0.0091238l-1.5,-1.07l1.5,-1.07l-1.2067e-08,8.46514e-09c0.515426,-0.361577 0.640144,-1.07253 0.278567,-1.58795c-0.00282957,-0.00403353 -0.00568527,-0.00804868 -0.0085669,-0.0120452l-9.66892e-09,-1.32408e-08c-0.219267,-0.300269 -0.568198,-0.478447 -0.94,-0.48l6.38467e-08,-4.36309e-10c-0.239275,0.00163511 -0.472599,0.0747662 -0.67,0.21l-1,0.71v-1.22l-7.10543e-15,7.10543e-15c0,-0.635127 -0.514873,-1.15 -1.15,-1.15Z" fill="#191816"></path><path fill="#525252" d="M61.9,58l-8.18686e-09,-1.23137e-10c-0.356739,-0.00536541 -0.644635,-0.293261 -0.65,-0.65v-1.18l2.32529e-08,-1.93091e-06c0.00227532,-0.188972 -0.10219,-0.36308 -0.270002,-0.449999l4.30214e-08,8.54951e-09c-0.0759243,-0.0150882 -0.154076,-0.0150882 -0.23,-5.02291e-08l-4.51824e-09,2.09539e-11c-0.103468,0.000479949 -0.20444,0.0318162 -0.29,0.09l-1,0.71l1.75216e-08,-1.27071e-08c-0.107588,0.0780259 -0.237097,0.120029 -0.37,0.12l3.15595e-10,3.05533e-13c-0.358985,-0.000344981 -0.64972,-0.291639 -0.649375,-0.650624c3.52277e-05,-0.0366577 0.00317143,-0.0732467 0.00937506,-0.109376l-3.09204e-08,2.23537e-07c0.0235699,-0.170397 0.11799,-0.322923 0.26,-0.42l1.5,-1.07l-1.29819e-08,9.44267e-09c0.13125,-0.0954673 0.209225,-0.247704 0.21,-0.41l1.19549e-08,2.76157e-06c-0.00069035,-0.159574 -0.0790415,-0.308816 -0.209998,-0.400001l-1.5,-1.07l6.25776e-08,4.27778e-08c-0.14201,-0.0970775 -0.23643,-0.249602 -0.26,-0.42l-1.88549e-09,-1.09808e-08c-0.0607515,-0.353807 0.176817,-0.689873 0.530624,-0.750625c0.036129,-0.00620363 0.072718,-0.00933983 0.109376,-0.00937505l3.98441e-08,3.38794e-10c0.135808,0.00115476 0.268159,0.0429498 0.38,0.12l1,0.71l-4.56121e-08,-3.10179e-08c0.0855598,0.0581838 0.186532,0.0895201 0.29,0.09l7.70901e-09,4.74003e-11c0.0805992,0.00049558 0.159914,-0.0201952 0.23,-0.06l-6.1686e-09,2.99995e-09c0.167922,-0.0816648 0.273244,-0.253301 0.27,-0.44v-1.27l7.10543e-15,-5.44996e-08c5.42052e-08,-0.358985 0.291015,-0.65 0.65,-0.65c0.358985,5.42052e-08 0.65,0.291015 0.65,0.65v1.22l1.16228e-09,2.0918e-07c0.00104619,0.188281 0.109883,0.35931 0.28,0.44l-9.77857e-09,-5.55642e-09c0.0671351,0.0381478 0.142793,0.0587818 0.22,0.06l2.94326e-08,2.50232e-10c0.106783,0.000907835 0.21135,-0.0304623 0.3,-0.09l1,-0.71l5.48455e-08,-3.85415e-08c0.111277,-0.0781976 0.243995,-0.120108 0.38,-0.12l-2.92237e-08,1.6712e-10c0.358979,-0.00205298 0.651654,0.287293 0.653707,0.646272c0.00121177,0.211887 -0.100931,0.411065 -0.273707,0.533728l-1.5,1.07l2.19472e-08,-1.52817e-08c-0.130957,0.0911844 -0.209309,0.240426 -0.21,0.4l-1.20616e-08,-2.52645e-06c0.00077442,0.162296 0.0787487,0.314533 0.209998,0.410001l1.5,1.07l-4.31169e-09,-3.12211e-09c0.138559,0.100331 0.231979,0.251241 0.26,0.42l1.02994e-08,5.99822e-08c0.0607515,0.353807 -0.176817,0.689873 -0.530624,0.750625c-0.036129,0.00620363 -0.072718,0.00933982 -0.109376,0.00937505v0l2.43938e-08,-1.94618e-11c-0.136005,0.000108476 -0.268723,-0.0418024 -0.38,-0.12l-1,-0.71l-1.54644e-08,-1.0386e-08c-0.0886496,-0.0595377 -0.193217,-0.0909078 -0.3,-0.09l3.19179e-08,6.057e-09c-0.0726847,-0.0137932 -0.147315,-0.0137932 -0.22,-1.2114e-08l1.50133e-08,-7.58484e-09c-0.170066,0.0859187 -0.278055,0.259473 -0.28,0.45v1.21l1.00837e-09,3.26208e-08c0.0110916,0.358814 -0.270793,0.658681 -0.629606,0.669773c-0.0101276,0.000313066 -0.0202612,0.000389277 -0.0303924,0.000228572Z"></path><path d="M61.9,50.33l-6.55672e-09,7.10543e-15c0.0828427,-3.62117e-09 0.15,0.0671573 0.15,0.15v1.22l-3.44907e-09,-1.13819e-06c0.00114088,0.376558 0.21372,0.72055 0.549999,0.890001l-5.70583e-08,-2.92347e-08c0.139322,0.0713839 0.293458,0.109061 0.45,0.11l-4.94389e-08,-1.76072e-10c0.211826,0.000754406 0.418421,-0.065776 0.59,-0.19l1,-0.7h0.09l-7.10159e-10,2.5608e-11c0.0476025,-0.00171667 0.0928118,0.020888 0.12,0.06l1.79305e-09,1.82927e-09c0.0571714,0.0583265 0.0571714,0.151673 -3.58609e-09,0.21l-1.5,1.07l-4.66211e-08,3.31474e-08c-0.450112,0.320027 -0.555566,0.944349 -0.235539,1.39446c0.0647925,0.0911293 0.14441,0.170747 0.235539,0.235539l1.5,1.07l-1.99971e-09,-1.76357e-09c0.0579899,0.0511423 0.063541,0.139611 0.0123987,0.197601c-0.00386977,0.00438791 -0.00801079,0.00852893 -0.0123987,0.0123987l9.24672e-10,-1.09443e-09c-0.0300827,0.0356057 -0.0734658,0.0572973 -0.12,0.06h-0.09l-1,-0.71l-1.1027e-08,-7.70125e-09c-0.172785,-0.120673 -0.379279,-0.183671 -0.59,-0.18l-4.06022e-08,-7.15538e-10c-0.156978,-0.00276642 -0.312001,0.0351281 -0.45,0.11l-1.1224e-07,5.65576e-08c-0.33628,0.16945 -0.548859,0.513442 -0.55,0.89v1.21l3.57481e-09,4.80559e-08c0.00573587,0.0771068 -0.0521217,0.144264 -0.129229,0.15c-0.00691429,0.000514344 -0.0138572,0.000514342 -0.0207715,-7.14965e-09l-6.55671e-09,-7.10543e-15c-0.0828427,-3.62117e-09 -0.15,-0.0671573 -0.15,-0.15v-1.27l1.73605e-08,-8.36336e-06c0.000775519,-0.374357 -0.207606,-0.717795 -0.540007,-0.889995l2.89777e-08,1.56313e-08c-0.141127,-0.0761277 -0.299701,-0.114047 -0.46,-0.11l2.55692e-08,1.94213e-10c-0.207318,-0.00157466 -0.41,0.0613267 -0.58,0.18l-1,0.71l-3.76239e-09,1.46868e-09c-0.0257215,0.0100407 -0.0542785,0.0100407 -0.08,-2.93737e-09l-6.24219e-10,-1.8143e-10c-0.0354383,-0.0103005 -0.0668541,-0.0312449 -0.0899916,-0.0599961l4.85578e-09,5.58309e-09c-0.052364,-0.0602072 -0.0523641,-0.149793 -9.71156e-09,-0.21l1.5,-1.07l2.39493e-08,-1.70278e-08c0.450112,-0.320027 0.555566,-0.944349 0.235539,-1.39446c-0.0647925,-0.0911293 -0.14441,-0.170747 -0.235539,-0.235539l-1.5,-1.04l4.85578e-09,5.58308e-09c-0.052364,-0.0602072 -0.0523641,-0.149793 -9.71156e-09,-0.21l7.40739e-09,-9.93118e-09c0.0303758,-0.0407253 0.0793018,-0.0633065 0.13,-0.06l7.01953e-09,-2.74014e-09c0.0257215,-0.0100407 0.0542785,-0.0100407 0.08,5.4803e-09l1,0.7l-3.57163e-08,-2.58601e-08c0.16881,0.122226 0.371591,0.188654 0.58,0.19l-2.91098e-08,-1.17133e-10c0.159923,0.000643489 0.317668,-0.0370782 0.46,-0.11l7.65481e-08,-3.96567e-08c0.3324,-0.172204 0.540779,-0.515643 0.54,-0.89v-1.19l7.10543e-15,-2.26494e-08c1.25089e-08,-0.0828427 0.0671573,-0.15 0.15,-0.15m0,-1l7.13135e-09,-6.12204e-11c-0.632864,0.0054326 -1.14457,0.517136 -1.15,1.15v1.22l-1,-0.71l-1.5259e-08,-1.04535e-08c-0.197401,-0.135234 -0.430724,-0.208365 -0.67,-0.21l5.01527e-08,-2.09546e-10c-0.371802,0.00155343 -0.720733,0.179731 -0.94,0.48l5.93475e-08,-8.23084e-08c-0.36823,0.510694 -0.25274,1.2232 0.257955,1.59143c0.00399651,0.00288163 0.00801165,0.00573733 0.0120452,0.0085669l1.5,1.07l-1.52,1.07l-6.40513e-08,4.52894e-08c-0.518586,0.366682 -0.641729,1.08433 -0.275047,1.60292c0.00167345,0.00236671 0.00335585,0.00472709 0.00504715,0.00708108l3.16013e-08,4.32755e-08c0.219267,0.300269 0.568198,0.478447 0.94,0.48l-4.91322e-08,1.38236e-10c0.240972,-0.000677985 0.475532,-0.0776975 0.67,-0.22l1,-0.7v1.21l1.42109e-14,1.18671e-07c9.59016e-08,0.635127 0.514873,1.15 1.15,1.15c0.635127,-9.59016e-08 1.15,-0.514873 1.15,-1.15v-1.21l1,0.7l-5.05021e-08,-3.6955e-08c0.194468,0.142302 0.429028,0.219322 0.67,0.22l-1.29628e-08,5.41647e-11c0.371802,-0.00155345 0.720733,-0.179731 0.94,-0.48l-1.14949e-08,1.65104e-08c0.3629,-0.521239 0.234542,-1.23798 -0.286697,-1.60088c-0.00441283,-0.00307233 -0.00884715,-0.00611367 -0.0133026,-0.0091238l-1.5,-1.07l1.5,-1.07l-1.2067e-08,8.46515e-09c0.515426,-0.361577 0.640144,-1.07253 0.278567,-1.58795c-0.00282957,-0.00403353 -0.00568527,-0.00804868 -0.0085669,-0.0120452l-9.66891e-09,-1.32408e-08c-0.219267,-0.300269 -0.568198,-0.478447 -0.94,-0.48l6.20484e-08,8.94218e-10c-0.253986,-0.00366037 -0.502583,0.0733695 -0.71,0.22l-1,0.71v-1.23l-7.10543e-15,7.10543e-15c0,-0.635127 -0.514873,-1.15 -1.15,-1.15Z" fill="#191816"></path></svg>
