<?xml version="1.0" encoding="UTF-8"?><svg version="1.1" viewBox="0 0 100 112" xmlns="http://www.w3.org/2000/svg" xmlns:xlink="http://www.w3.org/1999/xlink"><!--Generated by IJSVG (https://github.com/iconjar/IJSVG)--><defs><mask id="a" maskContentUnits="userSpaceOnUse" maskUnits="objectBoundingBox"><use fill="#FFF" xlink:href="#b"></use></mask><path id="c" d="M42.91,89.01c-0.55228,0 -1,-0.44772 -1,-1v-6.27c0,-0.55228 0.44772,-1 1,-1h16.61c0.55228,0 1,0.44772 1,1v6.27c0,0.55228 -0.44772,1 -1,1Z"></path><path id="b" d="M78.2843,27.7157c15.621,15.621 15.621,40.9476 0,56.5685c-15.621,15.621 -40.9476,15.621 -56.5685,0c-15.621,-15.621 -15.621,-40.9476 -7.10543e-15,-56.5685c15.621,-15.621 40.9476,-15.621 56.5685,-7.10543e-15"></path></defs><use xlink:href="#b" fill="#E8F4FA"></use><g mask="url(#a)"><path fill="#FFCEBF" d="M44,54.24l-3.6,-16.18l3.20972e-09,1.14171e-08c-0.411452,-1.46355 -1.93145,-2.31645 -3.395,-1.905c-1.46355,0.411452 -2.31645,1.93145 -1.905,3.395l4.22,18.1l2.09968e-07,7.54231e-07c0.131444,0.472165 0.198715,0.959879 0.2,1.45c0,12.56 2.5,12.1 3.79,18.2v20.26h15.88v-21.9c0,-5.62 4,-8.13 12.74,-18.93c0.75,-0.93 1.45,-2.63 0.54,-3.84l8.29608e-08,1.07362e-07c-0.926936,-1.19958 -2.64405,-1.43535 -3.86,-0.53l-5.15,4l1.00379e-07,-7.57363e-08c-0.742744,0.560402 -1.73955,0.649611 -2.57,0.23l3.17307e-08,1.53585e-08c-0.835203,-0.404261 -1.36414,-1.25211 -1.36,-2.18l3.47,-21.35l9.92324e-08,-7.67751e-07c0.194684,-1.50625 -0.868553,-2.88514 -2.37481,-3.07982c-1.39128,-0.179823 -2.69489,0.716413 -3.02519,2.07982l-3.53,21.54c0,0 0,0.09 0,0.13v0v-10.24l8.34987e-08,1.3853e-06c-0.0917101,-1.52154 -1.39951,-2.68065 -2.92106,-2.58894c-1.39356,0.083996 -2.50495,1.19538 -2.58894,2.58894v2l8.34987e-08,1.3853e-06c-0.0917101,-1.52154 -1.39951,-2.68065 -2.92106,-2.58894c-1.39356,0.083996 -2.50495,1.19538 -2.58894,2.58894l0.64,7"></path><path fill="#FFB59E" d="M51.78,72.34l4.70992e-07,5.96643e-10c-3.74828,-0.00474818 -7.46127,-0.724267 -10.94,-2.12c0.81,2.45 1.83,3.86 2.51,7.08v20.26h15.84v-21.9l1.16314e-07,1.12735e-05c-0.0165174,-1.60082 0.372206,-3.1798 1.12999,-4.59l6.64809e-07,-2.02158e-07c-2.76852,0.841864 -5.6463,1.26982 -8.53999,1.26999Z"></path><path fill="none" stroke="#191816" stroke-linecap="round" stroke-linejoin="round" stroke-width="1" d="M44,54.24l-3.6,-16.18l3.20972e-09,1.14171e-08c-0.411452,-1.46355 -1.93145,-2.31645 -3.395,-1.905c-1.46355,0.411452 -2.31645,1.93145 -1.905,3.395l4.22,18.1l2.09968e-07,7.54231e-07c0.131444,0.472165 0.198715,0.959879 0.2,1.45c0,12.56 2.5,12.1 3.79,18.2v20.26h15.88v-21.9c0,-5.62 4,-8.13 12.74,-18.93c0.75,-0.93 1.45,-2.63 0.54,-3.84l8.29608e-08,1.07362e-07c-0.926936,-1.19958 -2.64405,-1.43535 -3.86,-0.53l-5.15,4l1.00379e-07,-7.57363e-08c-0.742744,0.560402 -1.73955,0.649611 -2.57,0.23l3.17307e-08,1.53585e-08c-0.835203,-0.404261 -1.36414,-1.25211 -1.36,-2.18l3.47,-21.35l9.92324e-08,-7.67751e-07c0.194684,-1.50625 -0.868553,-2.88514 -2.37481,-3.07982c-1.39128,-0.179823 -2.69489,0.716413 -3.02519,2.07982l-3.53,21.54c0,0 0,0.09 0,0.13v0v-10.24l8.34987e-08,1.3853e-06c-0.0917101,-1.52154 -1.39951,-2.68065 -2.92106,-2.58894c-1.39356,0.083996 -2.50495,1.19538 -2.58894,2.58894v2l8.34987e-08,1.3853e-06c-0.0917101,-1.52154 -1.39951,-2.68065 -2.92106,-2.58894c-1.39356,0.083996 -2.50495,1.19538 -2.58894,2.58894l0.63,6.86"></path><path fill="#FFF" stroke="#191816" stroke-linecap="round" stroke-linejoin="round" stroke-width="1" d="M61.5,86.56l9.17706e-09,-9.64992e-09c-0.262611,0.276142 -0.699357,0.287112 -0.9755,0.0245003c-0.00837055,-0.00796039 -0.0165399,-0.0161297 -0.0245003,-0.0245003l-1.15,-1.31l4.11968e-09,4.69666e-09c-0.228367,-0.260351 -0.228367,-0.649649 -8.23935e-09,-0.91l1.12,-1.34l4.20532e-08,-4.71468e-08c0.246309,-0.276142 0.66984,-0.300327 0.945982,-0.0540178c0.0190187,0.016964 0.037054,0.0349993 0.0540179,0.0540179l1.15,1.31l1.03432e-08,1.17918e-08c0.228367,0.260351 0.228367,0.649649 -2.06864e-08,0.91Z"></path><path fill="#FFF" stroke="#191816" stroke-linecap="round" stroke-linejoin="round" stroke-width="1" d="M42,86.56l1.94414e-08,-1.98423e-08c-0.270563,0.276142 -0.713756,0.280665 -0.989898,0.0101021c-0.00340163,-0.0033329 -0.00676915,-0.00670042 -0.0101021,-0.0101021l-1.15,-1.31l4.11968e-09,4.69666e-09c-0.228367,-0.260351 -0.228367,-0.649649 -8.23935e-09,-0.91l1.08,-1.34l1.36326e-08,-1.47901e-08c0.254531,-0.276142 0.684726,-0.293662 0.960869,-0.0391312c0.0135693,0.0125074 0.0266239,0.0255619 0.0391313,0.0391313l1.15,1.31l1.03432e-08,1.17918e-08c0.228367,0.260351 0.228367,0.649649 -2.06864e-08,0.91Z"></path><use fill="#525252" xlink:href="#c"></use><path fill="#656769" d="M41.91,81.74v0.76h18.61v-0.76v0c0,-0.552285 -0.447715,-1 -1,-1h-16.61h-4.37114e-08c-0.552285,2.41411e-08 -1,0.447715 -1,1c0,0 0,0 0,0Z"></path><use fill="none" stroke="#191816" stroke-linecap="round" stroke-linejoin="round" stroke-width="1" xlink:href="#c"></use><path fill="#FFF" stroke="#191816" stroke-linecap="round" stroke-linejoin="round" stroke-width="1" d="M46.65,86.56l1.94414e-08,-1.98423e-08c-0.270563,0.276142 -0.713756,0.280665 -0.989898,0.0101021c-0.00340163,-0.0033329 -0.00676915,-0.00670042 -0.0101021,-0.0101021l-1.15,-1.31l4.11968e-09,4.69666e-09c-0.228367,-0.260351 -0.228367,-0.649649 -8.23935e-09,-0.91l1.11,-1.34l1.36326e-08,-1.47901e-08c0.254531,-0.276142 0.684726,-0.293662 0.960869,-0.0391312c0.0135693,0.0125074 0.0266239,0.0255619 0.0391313,0.0391313l1.15,1.31l1.03432e-08,1.17918e-08c0.228367,0.260351 0.228367,0.649649 -2.06864e-08,0.91Z"></path><path fill="#FFF" stroke="#191816" stroke-linecap="round" stroke-linejoin="round" stroke-width="1" d="M55.07,86.56l1.94414e-08,-1.98423e-08c-0.270563,0.276142 -0.713756,0.280665 -0.989898,0.0101021c-0.00340163,-0.0033329 -0.00676915,-0.00670042 -0.0101021,-0.0101021l-1.15,-1.31l4.11968e-09,4.69666e-09c-0.228367,-0.260351 -0.228367,-0.649649 -8.23935e-09,-0.91l1.08,-1.34l1.36326e-08,-1.47901e-08c0.254531,-0.276142 0.684726,-0.293662 0.960869,-0.0391312c0.0135693,0.0125074 0.0266239,0.0255619 0.0391313,0.0391313l1.15,1.31l1.03432e-08,1.17918e-08c0.228367,0.260351 0.228367,0.649649 -2.06864e-08,0.91Z"></path><path fill="#FFCEBF" stroke="#191816" stroke-linecap="round" stroke-linejoin="round" stroke-width="1" d="M48.51,45.54v8.24"></path></g></svg>